<?xml version="1.0" encoding="utf-8"?>
<!-- Generator: Adobe Illustrator 24.0.2, SVG Export Plug-In . SVG Version: 6.00 Build 0)  -->
<svg version="1.1" id="Capa_1" xmlns="http://www.w3.org/2000/svg" xmlns:xlink="http://www.w3.org/1999/xlink" x="0px" y="0px"
	 viewBox="0 0 468.9 385.6" style="enable-background:new 0 0 468.9 385.6;" xml:space="preserve">
<style type="text/css">
	.st0{fill:#263238;}
	.st1{fill:#455A64;}
	.st2{fill:#AD6359;}
	.st3{fill:#FB088C;}
	.st4{opacity:0.2;enable-background:new    ;}
	.st5{fill:#C7C7C7;}
	.st6{fill:#F392B9;}
	.st7{fill:#FFFFFF;}
	.st8{fill:#37474F;}
	.st9{fill:#A6A6A6;}
	.st10{fill:#DBDBDB;}
	.st11{fill:#EBEBEB;}
	.st12{opacity:0.5;fill:#EBEBEB;enable-background:new    ;}
</style>
<title>admin-workoshop</title>
<g>
	<g id="Desk">
		<polygon class="st0" points="13.5,359.5 68.3,359.3 123.1,359.2 232.7,359 342.4,359.2 397.2,359.3 452,359.5 397.2,359.8 
			342.4,359.9 232.7,360 123.1,359.9 68.3,359.8 		"/>
	</g>
	<g id="Gears">
		<path class="st0" d="M455.1,259.1l-5.6-9.5h0.2l-3.1,1.8c-0.6,0.3-1.2,0.4-1.9,0.3c-0.3-0.1-0.6-0.2-0.9-0.4l-0.8-0.4l-0.8-0.4
			c-0.3-0.1-0.5-0.3-0.8-0.6c-0.5-0.5-0.7-1.1-0.8-1.8v-3.6l0.3,0.3l-11,0.1l0.4-0.4v3.6c0,0.7-0.3,1.3-0.8,1.8
			c-0.2,0.3-0.5,0.5-0.8,0.6l-0.8,0.4l-0.8,0.4c-0.3,0.2-0.6,0.3-1,0.4c-0.7,0.2-1.4,0.1-2-0.2l-3.1-1.8l0.6-0.2l-5.5,9.6l-0.2-0.6
			l3.1,1.8c0.6,0.4,1,1,1.2,1.6c0.1,0.3,0.2,0.7,0.1,1v0.9v0.9c0,0.3,0,0.7-0.1,1c-0.2,0.7-0.6,1.3-1.2,1.7l-3.1,1.8l0.2-0.7
			l5.5,9.6l-0.6-0.2l3.1-1.8c0.6-0.3,1.3-0.4,2-0.2c0.4,0.1,0.7,0.2,1,0.4l0.8,0.4l0.8,0.4c0.3,0.2,0.6,0.4,0.8,0.6
			c0.5,0.5,0.8,1.2,0.8,1.9v3.6l-0.4-0.4h11l-0.4,0.4v-3.6c0.1-0.7,0.3-1.3,0.8-1.8c0.2-0.2,0.5-0.4,0.8-0.6l0.8-0.4l0.8-0.4
			c0.3-0.2,0.6-0.3,0.9-0.4c0.7-0.1,1.3-0.1,1.9,0.2l3.1,1.8l-0.4,0.1l5.6-9.5l0.1,0.2l-3-1.8c-0.5-0.4-0.9-0.9-1.1-1.5
			c-0.1-0.6-0.1-1.2-0.1-1.8c-0.1-0.6,0-1.2,0.1-1.8c0.2-0.6,0.6-1.1,1.1-1.4L455.1,259.1z M455.1,259.1l-3,1.8
			c-0.5,0.3-0.8,0.8-1,1.4c-0.1,0.6-0.1,1.2-0.1,1.7c-0.1,0.6,0,1.2,0.1,1.7c0.2,0.5,0.5,1,1,1.3l3.1,1.7l0.2,0.1l-0.1,0.2l-5.4,9.6
			l-0.1,0.3l-0.3-0.1l-3.1-1.7c-0.5-0.2-1-0.3-1.5-0.2c-0.3,0.1-0.5,0.2-0.7,0.3l-0.8,0.5l-0.8,0.5c-0.2,0.1-0.4,0.3-0.6,0.5
			c-0.3,0.4-0.5,0.9-0.6,1.4v3.5v0.4h-0.4h-11h-0.4v-0.4v-3.5c0-0.5-0.2-1-0.6-1.3c-0.2-0.2-0.4-0.3-0.6-0.4l-0.8-0.5l-0.8-0.5
			c-0.6-0.4-1.4-0.4-2.1-0.1l-3,1.8l-0.4,0.2l-0.2-0.4l-5.5-9.5l-0.2-0.4l0.4-0.2l3-1.8c0.4-0.3,0.7-0.7,0.8-1.1
			c0.1-0.2,0.1-0.5,0.1-0.7V264v-0.9c0-0.2,0-0.5-0.1-0.7c-0.1-0.5-0.4-0.9-0.8-1.1l-3-1.8l-0.4-0.2l0.2-0.4l5.5-9.5l0.2-0.4
			l0.4,0.2l3,1.8c0.4,0.2,1,0.3,1.4,0.2c0.2-0.1,0.5-0.1,0.7-0.3l0.8-0.5l0.8-0.4c0.2-0.1,0.4-0.3,0.6-0.5c0.3-0.4,0.6-0.8,0.6-1.3
			v-3.5v-0.4h0.4l11,0.1h0.3v0.3v3.5c0,0.5,0.3,1,0.6,1.4c0.2,0.2,0.4,0.4,0.6,0.5l0.8,0.5l0.8,0.5c0.2,0.2,0.5,0.3,0.8,0.3
			c0.5,0.1,1.1,0.1,1.6-0.2l3.1-1.7l0.1-0.1l0.1,0.1L455.1,259.1z"/>
		<path class="st0" d="M444.6,264.1c0,5.1-4.2,9.3-9.3,9.3c-2.4,0-4.7-0.9-6.4-2.6c-3.7-3.6-3.8-9.4-0.2-13.1
			c3.6-3.7,9.4-3.8,13.1-0.2C443.6,259.1,444.6,261.6,444.6,264.1z M444.6,264.1c0-4.8-3.9-8.8-8.7-8.8c-0.1,0-0.2,0-0.3,0
			c-4.8,0.1-8.7,4.1-8.6,9c0.1,4.8,4.1,8.7,9,8.6C440.8,272.7,444.6,268.8,444.6,264.1z"/>
		<path class="st0" d="M56.9,208.2l-5.6-9.5l0.2,0l-3.1,1.8c-0.9,0.4-1.9,0.4-2.7-0.1l-0.8-0.4l-0.8-0.4c-0.3-0.1-0.5-0.3-0.8-0.6
			c-0.5-0.5-0.7-1.1-0.8-1.8v-3.6l0.3,0.3l-11,0.1l0.4-0.4v3.6c0,0.7-0.3,1.3-0.8,1.9c-0.2,0.2-0.5,0.5-0.8,0.6l-0.8,0.4l-0.8,0.4
			c-0.3,0.2-0.6,0.3-1,0.4c-0.7,0.2-1.4,0.1-2-0.2L23,199l0.6-0.2l-5.5,9.6l-0.2-0.6l3.1,1.8c0.6,0.4,1,1,1.2,1.6
			c0.1,0.3,0.2,0.7,0.1,1v0.9v0.9c0,0.3,0,0.7-0.1,1c-0.2,0.7-0.6,1.3-1.2,1.7l-3.1,1.8l0.2-0.7l5.5,9.6l-0.7-0.2l3.1-1.8
			c0.6-0.3,1.3-0.4,2-0.2c0.4,0.1,0.7,0.2,1,0.4l0.8,0.4l0.8,0.4c0.3,0.2,0.6,0.4,0.8,0.6c0.5,0.5,0.8,1.2,0.8,1.9v3.6l-0.4-0.4h11
			l-0.4,0.4v-3.6c0.1-0.7,0.3-1.3,0.8-1.8c0.2-0.2,0.5-0.4,0.8-0.6l0.8-0.4l0.8-0.4c0.9-0.5,1.9-0.6,2.9-0.1l3.1,1.8l-0.4,0.1
			l5.6-9.5l0.1,0.2l-3-1.8c-0.5-0.4-0.9-0.9-1.1-1.5c-0.1-0.6-0.1-1.2-0.1-1.8c-0.1-0.6,0-1.2,0.1-1.8c0.2-0.6,0.6-1.1,1.1-1.4
			L56.9,208.2z M56.9,208.2l-3,1.8c-0.5,0.3-0.8,0.8-1,1.4c-0.1,0.6-0.1,1.2-0.1,1.7c-0.1,0.6,0,1.2,0.1,1.7c0.2,0.5,0.5,1,1,1.3
			l3.1,1.7l0.2,0.1l-0.1,0.2l-5.4,9.6l-0.1,0.2l-0.3-0.1l-3.1-1.7c-0.5-0.2-1-0.3-1.5-0.2c-0.3,0.1-0.5,0.2-0.7,0.3l-0.8,0.5
			l-0.8,0.5c-0.2,0.1-0.4,0.3-0.6,0.5c-0.3,0.4-0.5,0.9-0.6,1.4v3.5v0.4h-0.4h-11h-0.4v-0.4V229c0-0.5-0.2-1-0.6-1.3
			c-0.2-0.2-0.4-0.3-0.6-0.5l-0.8-0.5l-0.8-0.5c-0.2-0.1-0.4-0.2-0.7-0.3c-0.5-0.1-1-0.1-1.4,0.2l-3,1.8l-0.4,0.2l-0.2-0.4l-5.5-9.5
			l-0.2-0.4l0.4-0.2l3-1.8c0.4-0.3,0.7-0.7,0.8-1.1c0.1-0.2,0.1-0.5,0.1-0.7v-0.9v-0.9c0-0.2,0-0.5-0.1-0.7
			c-0.1-0.5-0.4-0.9-0.8-1.1l-3-1.8l-0.4-0.2l0.2-0.4l5.5-9.5l0.2-0.4l0.4,0.2l3,1.8c0.4,0.2,1,0.3,1.4,0.2c0.2-0.1,0.5-0.1,0.7-0.3
			l0.8-0.5l0.8-0.4c0.2-0.1,0.4-0.3,0.6-0.5c0.3-0.4,0.6-0.8,0.6-1.3v-3.5v-0.4h0.4l11,0.1h0.3v0.3v3.5c0,0.5,0.3,1,0.6,1.4
			c0.2,0.2,0.4,0.4,0.6,0.5l0.8,0.5l0.8,0.5c0.2,0.2,0.5,0.3,0.8,0.3c0.5,0.1,1.1,0.1,1.6-0.2l3.1-1.7l0.1-0.1l0.1,0.1L56.9,208.2z"
			/>
		<path class="st0" d="M46.3,213.1c0,5.1-4.1,9.3-9.3,9.3c-5.1,0-9.3-4.1-9.3-9.3s4.1-9.3,9.3-9.3c2.5,0,4.9,1,6.7,2.8
			C45.4,208.4,46.3,210.7,46.3,213.1z M46.3,213.1c0-4.8-3.9-8.8-8.8-8.8c-4.8,0-8.8,3.9-8.8,8.8c0,4.8,3.9,8.8,8.8,8.8
			C42.4,221.9,46.3,217.9,46.3,213.1C46.3,213.1,46.3,213.1,46.3,213.1z"/>
		<path class="st1" d="M50.2,153.5c1.8,0.4,3.2,1.9,3.6,3.6c0.1,0.5,0.2,1,0.4,1.4s0.3,1,0.5,1.4c0.6,1.7,0.3,3.7-1,5l-4.3,4.6
			l14.9,14l4.3-4.6c1.3-1.3,3.2-1.8,4.9-1.2c1,0.3,1.9,0.5,2.9,0.7c1.8,0.3,3.3,1.6,3.9,3.3l1.8,6l19.6-5.9l-1.8-6
			c-0.5-1.8,0-3.7,1.4-4.9c0.7-0.7,1.4-1.4,2-2.2c1.2-1.4,3-2.1,4.8-1.7l6.2,1.4l4.7-19.9l-6.2-1.4c-1.7-0.4-3.1-1.8-3.5-3.5
			c-0.1-0.5-0.3-1-0.4-1.5c-0.2-0.5-0.3-1-0.5-1.5c-0.6-1.7-0.2-3.6,1-4.9l4.3-4.6l-14.9-14l-4.3,4.6c-1.2,1.3-3.1,1.8-4.8,1.3
			c-1-0.3-2.1-0.6-3.2-0.7c-1.8-0.3-3.2-1.6-3.7-3.4l-1.8-6l-19.5,5.9l1.8,6c0.5,1.8,0,3.7-1.4,5c-0.7,0.7-1.4,1.4-2,2.2
			c-1.2,1.4-3,2.1-4.8,1.7l-6.2-1.4L44.1,152L50.2,153.5z M74.6,135c8.4-3.8,18.4-0.1,22.2,8.4c3.8,8.4,0.1,18.4-8.4,22.2
			c-8.4,3.8-18.4,0.1-22.2-8.4c-0.6-1.3-1-2.7-1.3-4.2C63.7,145.6,67.7,138.2,74.6,135L74.6,135z"/>
	</g>
	<g id="Character">
		<path class="st0" d="M131.9,149.5c-2.3,0.3-12.2-0.7-18.7,8.3c-6.2,8.6-8.1,34.4-9.4,40.1s-8.7,6.6-10.3,13.1
			c-1.4,5.6,2.7,7.7,3.1,11.8c0.3,3.2-2.8,8,0.1,12.7c2.7,4.3,7.4,3.3,10.2,4.6s4.7,7.8,9.9,9.6s9.8-3.1,12.6-3.1
			c2.8,0,6.1,8.5,15.2,7.6s11.6-8.5,15.3-10.1s13.1,1,17.4-3.7s4.9-11,6.8-13.3s5.9-2,8.3-7.3s-2.7-8.6-3.4-13.2
			c-0.5-3.2,2.3-6.2,0.2-11.1c-2.8-6.7-11-5.2-14.3-12.1c-2.5-5.4-7.8-28.9-22.1-34.6C143,145.1,131.9,149.5,131.9,149.5z"/>
		<path class="st0" d="M104.1,196.6c-0.5,1.2-1.3,2.2-2.3,3.1l-3,2.6c-2,1.6-3.7,3.4-5.2,5.5c-1.3,2-1.6,4.6-0.8,6.9
			c0.5,1.1,1.1,2.2,2,3.1c0.9,1,1.7,2.2,2.3,3.4c0.4,1.4,0.3,2.9-0.3,4.3c-0.4,1.3-0.9,2.5-1.2,3.7c-0.8,2.3-0.7,4.9,0.3,7.1
			c0.5,1.1,1.4,1.9,2.5,2.4c1.1,0.5,2.4,0.7,3.6,0.8c1.3,0.1,2.6,0,3.9,0c1.3-0.1,2.6,0.2,3.8,0.8c-1.2-0.5-2.5-0.6-3.8-0.4
			c-1.3,0.1-2.6,0.3-3.9,0.3c-1.4,0.1-2.7-0.1-4-0.6c-1.3-0.5-2.4-1.5-3.1-2.7c-1.6-2.4-1.3-5.5-0.6-8c0.3-1.3,0.8-2.5,1.2-3.7
			c0.4-1.1,0.5-2.2,0.3-3.3c-0.8-2.1-3.2-3.9-4.1-6.6c-1-2.7-0.5-5.7,1.1-8c1.6-2.1,3.5-4,5.7-5.5l3.1-2.3
			C102.5,198.6,103.4,197.7,104.1,196.6z"/>
		<path class="st0" d="M166.2,162.2c2.5,4,4.1,8.4,6.1,12.5c1,2.1,1.9,4.2,3,6.2c0.5,1,1.2,1.9,1.9,2.7c0.1,0.2,0.3,0.4,0.5,0.5
			c0.2,0.2,0.4,0.3,0.6,0.4c0.5,0.2,1,0.5,1.5,0.7c2.2,0.9,4.3,1.8,6.4,2.9c2.2,1.1,4,2.9,5.1,5.1c0.6,1.1,0.8,2.4,0.8,3.6
			c-0.1,1.2-0.5,2.4-1,3.5c-1.2,2-1.9,4.2-2.1,6.5c-0.3-2.4,0.6-4.7,1.4-6.8c0.5-1,0.7-2.1,0.8-3.2c0-1.1-0.3-2.1-0.8-3.1
			c-1.1-1.9-2.8-3.4-4.8-4.4c-2.1-1-4.2-1.9-6.3-2.7c-0.5-0.2-1.1-0.5-1.6-0.8c-0.6-0.3-1.1-0.7-1.5-1.2c-0.8-0.9-1.4-1.9-2-3
			c-1.1-2.1-2.1-4.2-2.9-6.4l-2.5-6.5C168,166.4,167.2,164.3,166.2,162.2z"/>
		<path class="st0" d="M186.3,225.8c-1,1.3-1.1,3.1-1.4,4.7s-0.7,3.3-1.1,4.9c-0.4,1.7-1,3.3-1.7,4.8c-0.7,1.6-1.9,3-3.3,4.1
			c-3.1,2-6.9,1.9-10.1,1.3c-1.7-0.3-3.3-0.7-4.9-0.9c-1.6-0.4-3.3-0.3-4.9,0.1c1.6-0.7,3.3-1,5-0.8c1.7,0.1,3.3,0.4,5,0.5
			c3.2,0.3,6.6,0.3,9.1-1.4c1.2-0.9,2.2-2.2,2.9-3.6c0.7-1.4,1.4-2.9,1.9-4.5c0.5-1.5,1-3.1,1.5-4.7c0.3-0.8,0.5-1.6,0.8-2.4
			C185.3,227.1,185.7,226.3,186.3,225.8z"/>
		<path class="st2" d="M149.4,254.4c8,33.5,25,75.6,37.3,83.9c9.9,6.7,61.2,17.7,64,18c7.1,0.5,19.8-49.5,12.5-51.4
			c-9.2-2.4-53-2.7-55.5-5.2s-22.8-29.6-41.4-54.1C153.5,228.6,142.7,226.7,149.4,254.4z"/>
		<path class="st2" d="M245,353.7c0.9,0.4,12.9,6.1,20.3,8.1c5.5,1.5,21.6,5.3,23.8-0.6c1.5-4-7.6-7.4-14.1-9.9
			c-3.4-1.3-7.6-4.7-6.7-6.9c1.6-3.8,10.4-0.2,16.1,3c11.1,6.1,26,17.3,32.6,11.6c2.5-2.2-0.5-5.9-4.9-9.6
			c7.1,4.2,14.6,7.7,17.5,5.4c1.6-1.3,1.7-3,0.7-5c2.2,0.6,4.1,0.5,5.4-1c2.2-2.4,1-5.9-1.5-9.5c0.9-0.1,1.6-0.7,2-1.4
			c4.6-7.4-19.9-28-28.3-29.8c-24.6-5.3-50.7-2.6-50.7-2.6C247.8,313.3,245,353.7,245,353.7z"/>
		<path class="st0" d="M280.5,330.3c5.9,0.8,11.5,2.8,16.5,5.9c6.3,4,10.5,8.7,15.9,13.4c0.1,0.1,0,0.3-0.2,0.2
			c-2.5-2.2-13-10.6-15.7-12.5c-4.9-3.5-10.5-5.9-16.5-6.9C280.4,330.4,280.5,330.3,280.5,330.3z"/>
		<path class="st0" d="M284.8,319.8c6.5,1.6,13.1,3.2,19.2,6.2c6.6,3.2,11.9,8.5,17,13.6c3.1,3.1,6.1,6.2,9.1,9.4
			c0.1,0.1-0.1,0.4-0.2,0.2c-5.2-5.3-10.6-10.4-16.2-15.4c-5.1-4.6-11.1-8.2-17.6-10.5c-3.7-1.3-7.5-2.4-11.3-3.4
			C284.7,319.9,284.7,319.8,284.8,319.8z"/>
		<path class="st0" d="M291.5,310.6c6.3,1.1,11.8,2.1,17.4,5.4c7.4,4.3,14.7,11.6,17.2,14.2c2.8,2.9,5.5,5.8,8.2,8.8
			c0.1,0.1-0.1,0.3-0.2,0.2c-6.1-6.6-12.6-12.7-19.5-18.5c-3.2-2.8-6.9-5-10.8-6.7C299.8,312.5,295.7,311.4,291.5,310.6
			C291.5,310.6,291.5,310.6,291.5,310.6z"/>
		<path class="st3" d="M249.3,301.9l8.9,60.7c0,0-62.2-10.5-76.2-25s-33-61.3-35.9-89.3s4.3-25.7,20.5-5.3s39.2,52.4,42.2,54.2
			S249.3,301.9,249.3,301.9z"/>
		<path class="st4" d="M150.6,269.5l-0.3,0.1v-0.1L150.6,269.5z M215.7,339.6c0.4,0,0.7,0.1,1,0.3c0.5,0.3,0.9,0.9,0.9,1.5
			c0,0.9,0.5,1.8,1.4,2.1c0.8,0.2,1.6,0.2,2.4-0.1c-0.4-0.1-0.8-0.1-1.1-0.2c-0.3,0-0.7-0.1-0.9-0.3c-0.5-0.3-0.8-0.9-0.8-1.5
			c0-0.9-0.6-1.8-1.5-2.1c-0.8-0.2-1.6-0.1-2.4,0.1C215,339.5,215.4,339.6,215.7,339.6z M253.4,329.8c-0.6,0-1.2,0.1-1.8,0.2
			c0.4,0.1,0.8,0.1,1.1,0.2c0.3,0,0.5,0.1,0.8,0.2L253.4,329.8z M185.2,314.8c0.3,0,0.7,0.1,0.9,0.3c0.5,0.3,0.9,0.9,0.9,1.5
			c0,0.9,0.5,1.8,1.4,2.1c0.8,0.2,1.6,0.2,2.4-0.1c-0.4-0.1-0.8-0.1-1.1-0.2c-0.3,0-0.7-0.1-0.9-0.3c-0.5-0.3-0.8-0.9-0.8-1.5
			c0-0.9-0.6-1.8-1.5-2.1c-0.8-0.2-1.6-0.1-2.4,0.1C184.5,314.6,184.8,314.7,185.2,314.8z M171.1,300.1c-0.2,0.2-0.5,0.4-0.9,0.5
			c-0.6,0.2-1.2,0-1.7-0.4c-0.6-0.7-1.6-0.9-2.5-0.5c-0.9,0.4-1.2,1.1-1.6,1.7c0.3-0.2,0.6-0.4,1-0.6c0.7-0.7,1.8-0.6,2.5,0
			c0.7,0.6,1.7,0.8,2.5,0.4c0.7-0.4,1.2-1,1.6-1.8C171.7,299.7,171.4,299.9,171.1,300.1z M217.1,304.4c-0.2,0.2-0.5,0.4-0.9,0.5
			c-0.6,0.2-1.2,0-1.7-0.4c-0.6-0.7-1.6-0.9-2.5-0.5c-0.9,0.4-1.2,1.1-1.6,1.7c0.3-0.2,0.6-0.4,0.9-0.6c0.2-0.2,0.6-0.4,0.9-0.5
			c0.6-0.1,1.2,0.1,1.7,0.5c0.7,0.7,1.7,0.8,2.5,0.4c0.7-0.4,1.2-1,1.6-1.8C217.7,303.9,217.4,304.2,217.1,304.4L217.1,304.4z
			 M200.2,336.4c-0.2,0.2-0.6,0.4-0.9,0.5c-0.6,0.2-1.2,0-1.7-0.4c-0.6-0.7-1.6-0.9-2.5-0.5c-0.9,0.4-1.2,1.1-1.6,1.7
			c0.3-0.2,0.6-0.4,0.9-0.6c0.2-0.2,0.6-0.4,0.9-0.5c0.6-0.1,1.2,0.1,1.7,0.5c0.7,0.6,1.7,0.8,2.5,0.4c0.7-0.4,1.2-1,1.6-1.8
			C200.7,336,200.5,336.2,200.2,336.4L200.2,336.4z M236.3,329.4c-0.2,0.2-0.6,0.4-0.9,0.5c-0.6,0.1-1.2,0-1.7-0.4
			c-0.6-0.7-1.6-0.9-2.5-0.5c-0.9,0.4-1.2,1.1-1.6,1.7c0.3-0.2,0.6-0.4,0.9-0.6c0.2-0.2,0.6-0.4,0.9-0.5c0.6-0.1,1.2,0.1,1.7,0.5
			c0.7,0.6,1.7,0.8,2.5,0.4c0.7-0.4,1.2-1,1.6-1.8C236.8,329,236.5,329.2,236.3,329.4L236.3,329.4z M153,243.6c0,0.4-0.1,0.7-0.3,1
			c-0.3,0.5-0.9,0.9-1.5,0.9c-0.9,0-1.8,0.5-2.1,1.4c-0.2,0.8-0.2,1.6,0.1,2.4c0.1-0.4,0.1-0.8,0.2-1.1c0-0.3,0.1-0.7,0.3-0.9
			c0.3-0.5,0.9-0.8,1.5-0.8c0.9,0,1.8-0.6,2.1-1.5c0.2-0.8,0.1-1.6-0.1-2.4C153.1,242.9,153,243.2,153,243.6L153,243.6z
			 M175.3,326.4c-0.1,0.4-0.1,0.8-0.2,1.1c0,0.2-0.1,0.4-0.1,0.6l0.4,0.7v-0.1C175.5,328,175.5,327.2,175.3,326.4L175.3,326.4z
			 M239,306.8c0,0.4-0.1,0.7-0.3,1c-0.3,0.5-0.9,0.9-1.5,0.9c-0.9,0-1.8,0.5-2.1,1.4c-0.2,0.8-0.2,1.6,0.1,2.4
			c0.1-0.4,0.1-0.8,0.2-1.1c0-0.3,0.1-0.7,0.3-0.9c0.3-0.5,0.9-0.8,1.5-0.8c0.9,0,1.8-0.6,2.1-1.5c0.2-0.8,0.1-1.6-0.1-2.4
			C239.1,306.1,239,306.5,239,306.8L239,306.8z M242.7,349.3c0,0.4-0.1,0.7-0.3,1c-0.3,0.5-0.9,0.9-1.5,0.9c-0.9,0-1.8,0.5-2.1,1.4
			c-0.2,0.8-0.2,1.6,0.1,2.4c0.1-0.4,0.1-0.8,0.2-1.1c0-0.3,0.1-0.7,0.3-0.9c0.3-0.5,0.9-0.8,1.5-0.8c0.9,0,1.8-0.6,2.1-1.5
			c0.2-0.8,0.1-1.6-0.1-2.4C242.9,348.5,242.8,348.9,242.7,349.3z M213,320.9c0,0.4-0.1,0.7-0.3,1c-0.3,0.5-0.9,0.9-1.5,0.9
			c-0.9,0-1.8,0.5-2.1,1.4c-0.2,0.8-0.2,1.6,0.1,2.4c0.1-0.4,0.2-0.7,0.2-1.1c0-0.3,0.1-0.7,0.3-0.9c0.3-0.5,0.9-0.8,1.5-0.8
			c0.9,0,1.8-0.6,2.1-1.5c0.2-0.8,0.1-1.6-0.1-2.4C213.1,320.2,213.1,320.6,213,320.9L213,320.9z M171.3,278c0,0.4-0.1,0.7-0.3,1
			c-0.3,0.5-0.9,0.9-1.5,0.9c-0.9,0-1.8,0.5-2.1,1.4c-0.2,0.8-0.2,1.6,0.1,2.4c0.1-0.4,0.1-0.8,0.2-1.1c0-0.3,0.1-0.7,0.3-0.9
			c0.3-0.5,0.9-0.8,1.5-0.8c0.9,0,1.8-0.6,2.1-1.5c0.2-0.8,0.1-1.6-0.1-2.4C171.4,277.2,171.4,277.6,171.3,278L171.3,278z
			 M193.4,297.2c0,0.4-0.1,0.7-0.3,1c-0.3,0.5-0.9,0.9-1.5,0.9c-0.9,0-1.8,0.5-2.1,1.4c-0.2,0.8-0.2,1.6,0.1,2.4
			c0.1-0.4,0.1-0.8,0.2-1.1c0-0.3,0.1-0.7,0.3-0.9c0.3-0.5,0.9-0.8,1.5-0.8c0.9,0,1.8-0.6,2.1-1.5c0.2-0.8,0.1-1.6-0.1-2.4
			C193.5,296.5,193.5,296.9,193.4,297.2L193.4,297.2z M168.1,258.8c0.2-0.2,0.5-0.4,0.9-0.5c0.6-0.2,1.2,0,1.7,0.4
			c0.7,0.7,1.6,0.9,2.5,0.5c0.9-0.4,1.2-1.1,1.6-1.7c-0.3,0.2-0.6,0.4-0.9,0.6c-0.2,0.2-0.6,0.4-0.9,0.5c-0.6,0.1-1.2-0.1-1.7-0.5
			c-0.7-0.7-1.7-0.8-2.5-0.4c-0.7,0.4-1.2,1-1.6,1.8C167.5,259.2,167.8,259,168.1,258.8z"/>
		<path class="st0" d="M244.3,356.2c0-3.4-0.7-6.9-1.1-10.3s-0.9-7-1.4-10.5c-1-6.8-2.2-13.6-3.4-20.4c-0.7-4-1.6-7.9-2.3-11.8
			c0-0.1-0.3-0.1-0.2,0c0.8,7,1.6,13.9,2.5,20.8s2,13.6,3.2,20.4c0.4,1.9,0.8,3.9,1.1,5.8c0.3,2,0.7,4,1.2,6c0,0.1,0.1,0.1,0.1,0.1
			S244.3,356.3,244.3,356.2z"/>
		<path class="st4" d="M225.6,355.6c-17.4-4.4-36.5-10.7-43.5-18c-14-14.5-33-61.3-35.9-89.3c-1.5-14.7-0.3-21,3.6-20.8L225.6,355.6
			z"/>
		<path class="st3" d="M185.2,314.8l5.8,44.5H77.5c3.2-52.5,33.7-109.8,47.1-126.2c6.7-8.2,20-9.9,30.1-3.3
			c2.4,1.6,30.1,42.7,32.5,48.6C195.9,300.5,185.2,314.8,185.2,314.8z"/>
		<path class="st4" d="M143.9,265.5c0.8-0.3,1.6-0.3,2.4-0.1c0.9,0.3,1.5,1.2,1.5,2.1c0,0.6,0.3,1.2,0.8,1.5
			c0.3,0.2,0.6,0.3,0.9,0.3c0.4,0.1,0.8,0.1,1.1,0.2c-0.8,0.3-1.6,0.3-2.4,0.1c-0.9-0.4-1.4-1.2-1.4-2.1c0-0.6-0.3-1.2-0.9-1.5
			c-0.3-0.2-0.6-0.3-1-0.3C144.6,265.6,144.3,265.6,143.9,265.5z M152.4,312.8c0.4,0,0.7,0.1,1,0.3c0.5,0.3,0.9,0.9,0.9,1.5
			c0,0.9,0.5,1.8,1.4,2.1c0.8,0.2,1.6,0.2,2.4-0.1c-0.4-0.1-0.8-0.1-1.1-0.2c-0.3,0-0.7-0.1-0.9-0.3c-0.5-0.3-0.8-0.9-0.8-1.5
			c0-0.9-0.6-1.8-1.5-2.1c-0.8-0.2-1.6-0.1-2.4,0.1C151.6,312.7,152,312.8,152.4,312.8L152.4,312.8z M124.6,281.4
			c0.4,0,0.7,0.1,1,0.3c0.5,0.3,0.9,0.9,0.9,1.5c0,0.9,0.5,1.8,1.4,2.1c0.8,0.2,1.6,0.2,2.4-0.1c-0.4-0.1-0.8-0.1-1.1-0.2
			c-0.3,0-0.7-0.1-0.9-0.3c-0.5-0.3-0.8-0.9-0.8-1.5c0-0.9-0.6-1.8-1.5-2.1c-0.8-0.2-1.6-0.1-2.4,0.1
			C123.8,281.3,124.2,281.3,124.6,281.4z M109.5,329.6c0.4,0,0.7,0.1,1,0.3c0.5,0.3,0.9,0.9,0.9,1.5c0,0.9,0.5,1.8,1.4,2.1
			c0.8,0.2,1.6,0.2,2.4-0.1c-0.4-0.1-0.8-0.1-1.1-0.2c-1,0-1.8-0.9-1.8-1.8c0-0.9-0.6-1.8-1.5-2.1c-0.8-0.2-1.6-0.1-2.4,0.1
			C108.7,329.5,109.1,329.5,109.5,329.6z M177.3,353c0.3,0,0.7,0.1,0.9,0.3c0.5,0.3,0.9,0.9,0.9,1.5c0,0.9,0.5,1.8,1.4,2.1
			c0.8,0.2,1.6,0.2,2.4-0.1c-0.4-0.1-0.8-0.1-1.1-0.2c-0.3,0-0.7-0.1-0.9-0.3c-0.5-0.3-0.8-0.9-0.8-1.5c0-0.9-0.6-1.8-1.5-2.1
			c-0.8-0.2-1.6-0.1-2.4,0.1C176.6,352.9,177,352.9,177.3,353L177.3,353z M82.3,335.4c-0.4,0-0.7-0.1-1-0.3
			c-0.2-0.2-0.4-0.4-0.6-0.6c-0.1,0.3-0.1,0.6-0.2,1c0.1,0.1,0.3,0.2,0.5,0.3c0.8,0.2,1.6,0.2,2.4-0.1
			C83.1,335.6,82.7,335.5,82.3,335.4L82.3,335.4z M132.9,231.8c0.4,0,0.7,0.1,1,0.3c0.5,0.3,0.9,0.9,0.9,1.5c0,0.9,0.5,1.8,1.4,2.1
			c0.8,0.2,1.6,0.2,2.4-0.1c-0.4-0.1-0.8-0.1-1.1-0.2c-0.3,0-0.7-0.1-0.9-0.3c-0.5-0.3-0.8-0.9-0.8-1.5c0-0.9-0.6-1.8-1.5-2.1
			c-0.8-0.2-1.6-0.1-2.4,0.1C132.1,231.6,132.5,231.7,132.9,231.8z M171.1,300.2c-0.2,0.2-0.5,0.4-0.9,0.5c-0.6,0.2-1.2,0-1.7-0.4
			c-0.6-0.7-1.6-0.9-2.5-0.5c-0.9,0.4-1.2,1.1-1.6,1.7c0.3-0.2,0.6-0.4,1-0.6c0.7-0.7,1.8-0.6,2.5,0c0.7,0.6,1.7,0.8,2.5,0.4
			c0.7-0.4,1.2-1,1.6-1.8C171.7,299.7,171.4,299.9,171.1,300.2L171.1,300.2z M98.2,285.2c-0.2,0.2-0.5,0.4-0.9,0.5
			c-0.4,0.1-0.9,0.1-1.2-0.1c-0.1,0.3-0.2,0.5-0.3,0.8c0.6,0.3,1.2,0.3,1.8,0c0.7-0.4,1.2-1,1.6-1.8
			C98.8,284.7,98.5,284.9,98.2,285.2L98.2,285.2z M98.2,317.5c-0.2,0.2-0.6,0.4-0.9,0.5c-0.6,0.2-1.2,0-1.7-0.4
			c-0.6-0.7-1.6-0.9-2.5-0.5c-0.9,0.4-1.2,1.1-1.6,1.7c0.3-0.2,0.6-0.4,1-0.6c0.2-0.2,0.6-0.4,0.9-0.5c0.6-0.1,1.2,0.1,1.7,0.5
			c0.7,0.6,1.7,0.8,2.5,0.4c0.7-0.4,1.2-1,1.6-1.8C98.8,317,98.5,317.3,98.2,317.5L98.2,317.5z M129.6,350.2
			c-0.2,0.2-0.5,0.4-0.9,0.5c-0.6,0.2-1.2,0-1.7-0.4c-0.6-0.7-1.6-0.9-2.5-0.5c-0.9,0.4-1.2,1.1-1.6,1.7c0.3-0.2,0.6-0.4,1-0.6
			c0.2-0.2,0.6-0.4,0.9-0.5c0.6-0.1,1.2,0.1,1.7,0.5c0.7,0.6,1.7,0.8,2.5,0.4c0.7-0.4,1.2-1,1.6-1.8
			C130.2,349.8,130,350,129.6,350.2L129.6,350.2z M132,310.5c-0.2,0.2-0.5,0.4-0.9,0.5c-0.6,0.1-1.2,0-1.7-0.4
			c-0.6-0.7-1.6-0.9-2.5-0.5c-0.9,0.4-1.2,1.1-1.6,1.7c0.3-0.2,0.6-0.4,0.9-0.6c0.2-0.2,0.6-0.4,0.9-0.5c0.6-0.1,1.2,0.1,1.7,0.5
			c0.7,0.6,1.7,0.8,2.5,0.4c0.7-0.4,1.2-1,1.6-1.8C132.6,310,132.3,310.3,132,310.5L132,310.5z M158.7,343.5
			c-0.2,0.2-0.5,0.4-0.9,0.5c-0.6,0.1-1.2,0-1.7-0.4c-0.6-0.7-1.6-0.9-2.5-0.5c-0.9,0.4-1.2,1.1-1.6,1.7c0.3-0.2,0.6-0.4,0.9-0.6
			c0.2-0.2,0.6-0.4,0.9-0.4c0.6-0.1,1.2,0.1,1.7,0.5c0.7,0.6,1.7,0.8,2.5,0.4c0.7-0.4,1.2-1,1.6-1.8
			C159.3,343,159,343.3,158.7,343.5L158.7,343.5z M152.9,243.7c0,0.4-0.1,0.7-0.3,1c-0.3,0.5-0.9,0.9-1.5,0.9
			c-0.9,0-1.8,0.5-2.1,1.4c-0.2,0.8-0.2,1.6,0.1,2.4c0.1-0.4,0.1-0.8,0.2-1.1c0-0.3,0.1-0.7,0.3-0.9c0.3-0.5,0.9-0.8,1.5-0.8
			c0.9,0,1.8-0.6,2.1-1.5c0.2-0.8,0.1-1.6-0.1-2.4C153.1,242.9,153,243.2,152.9,243.7L152.9,243.7z M175,327.6c0,0.3-0.1,0.7-0.3,1
			c-0.3,0.5-0.9,0.9-1.5,0.9c-0.9,0-1.8,0.5-2.1,1.4c-0.2,0.8-0.2,1.6,0.1,2.4c0.1-0.4,0.1-0.8,0.2-1.1c0-1,0.8-1.8,1.8-1.8
			c0.9,0,1.8-0.6,2.1-1.5c0.2-0.8,0.1-1.6-0.1-2.4C175.2,326.8,175.1,327.2,175,327.6L175,327.6z M171.3,278.1c0,0.4-0.1,0.7-0.3,1
			c-0.3,0.5-0.9,0.9-1.5,0.9c-0.9,0-1.8,0.5-2.1,1.4c-0.2,0.8-0.2,1.6,0.1,2.4c0.1-0.4,0.1-0.8,0.2-1.1c0-0.3,0.1-0.7,0.3-0.9
			c0.3-0.5,0.9-0.8,1.5-0.8c0.9,0,1.8-0.6,2.1-1.5c0.2-0.8,0.1-1.6-0.1-2.4C171.4,277.2,171.4,277.6,171.3,278.1L171.3,278.1z
			 M147.9,290.5c0,0.3-0.1,0.7-0.3,1c-0.3,0.5-0.9,0.9-1.5,0.9c-0.9,0-1.8,0.5-2.1,1.4c-0.2,0.8-0.2,1.6,0.1,2.4
			c0.1-0.4,0.1-0.8,0.2-1.1c0-1,0.8-1.8,1.8-1.8c0.9,0,1.8-0.6,2.1-1.5c0.2-0.8,0.1-1.6-0.1-2.4C148.1,289.7,148,290,147.9,290.5
			L147.9,290.5z M97.1,344.9c0,0.3-0.1,0.7-0.3,1c-0.3,0.5-0.9,0.9-1.5,0.9c-0.9,0-1.8,0.5-2.1,1.4c-0.2,0.8-0.2,1.6,0.1,2.4
			c0.1-0.4,0.1-0.8,0.2-1.1c0-0.3,0.1-0.7,0.3-0.9c0.3-0.5,0.9-0.8,1.5-0.8c0.9,0,1.8-0.6,2.1-1.5c0.2-0.8,0.1-1.6-0.1-2.4
			C97.2,344.2,97.2,344.6,97.1,344.9z M113.5,266.3c0,0.4-0.1,0.7-0.3,1c-0.3,0.5-0.9,0.9-1.5,0.9c-0.9,0-1.8,0.5-2.1,1.4
			c-0.2,0.8-0.2,1.6,0.1,2.4c0.1-0.4,0.1-0.8,0.2-1.1c0-0.3,0.1-0.7,0.3-0.9c0.3-0.5,0.9-0.8,1.5-0.8c0.9,0,1.8-0.6,2.1-1.5
			c0.2-0.8,0.1-1.6-0.1-2.4C113.7,265.6,113.6,266,113.5,266.3L113.5,266.3z M113.5,299.2c0,0.4-0.1,0.7-0.3,1
			c-0.3,0.5-0.9,0.9-1.5,0.9c-0.9,0-1.8,0.5-2.1,1.4c-0.2,0.8-0.2,1.6,0.1,2.4c0.1-0.4,0.1-0.8,0.2-1.1c0-0.3,0.1-0.7,0.3-0.9
			c0.3-0.5,0.9-0.8,1.5-0.8c0.9,0,1.8-0.6,2.1-1.5c0.2-0.8,0.1-1.6-0.1-2.4C113.7,298.5,113.6,298.8,113.5,299.2L113.5,299.2z
			 M140,327.6c0,0.3-0.1,0.7-0.3,1c-0.3,0.5-0.9,0.9-1.5,0.9c-0.9,0-1.8,0.5-2.1,1.4c-0.2,0.8-0.2,1.6,0.1,2.4
			c0.1-0.4,0.2-0.7,0.2-1.1c0-0.3,0.1-0.7,0.3-0.9c0.3-0.5,0.9-0.8,1.5-0.8c0.9,0,1.8-0.6,2.1-1.5c0.2-0.8,0.1-1.6-0.1-2.4
			C140.1,326.8,140,327.2,140,327.6L140,327.6z M168.1,258.8c0.2-0.2,0.5-0.4,0.9-0.5c0.6-0.2,1.2,0,1.7,0.4
			c0.7,0.7,1.6,0.9,2.5,0.5c0.9-0.4,1.2-1.1,1.6-1.7c-0.3,0.2-0.6,0.4-0.9,0.6c-0.2,0.2-0.6,0.4-0.9,0.5c-0.6,0.1-1.2-0.1-1.7-0.5
			c-0.7-0.7-1.7-0.8-2.5-0.4c-0.7,0.4-1.2,1-1.6,1.8C167.5,259.2,167.8,259,168.1,258.8z M127.7,255.4c0.2-0.2,0.6-0.4,0.9-0.5
			c0.6-0.2,1.2,0,1.7,0.4c0.6,0.7,1.6,0.9,2.5,0.5c0.9-0.4,1.2-1.1,1.6-1.7c-0.3,0.2-0.6,0.4-1,0.6c-0.2,0.2-0.6,0.4-0.9,0.5
			c-0.6,0.1-1.2-0.1-1.7-0.5c-0.7-0.7-1.7-0.8-2.5-0.4c-0.7,0.4-1.2,1-1.6,1.8C127.1,255.9,127.4,255.6,127.7,255.4z"/>
		<path class="st0" d="M188.9,309.4c2.7-6.6,3.4-14,1.9-21c-1.3-5.7-3.9-11-6.9-16.1c-0.5-0.9-1.5-2.5-2.7-4.3
			c-1.1-2.3-2.2-4.6-3.4-6.9c-0.1-0.1-0.2,0-0.2,0.1c0.7,1.5,1.4,2.9,2.1,4.4c-2.8-4.4-6.2-9.3-7.4-11.1c0,0-0.1,0-0.1,0
			c0,0,0,0.1,0,0.1c1.3,2.9,8.1,13.6,9.6,16.4c2.9,5.1,5.6,10.4,7.1,16.1c2.2,8.3,1.3,17.2-2.6,24.8c-0.7,1.2-1.1,2.7-1,4.1
			c0.1,1.6,0.4,3.2,0.6,4.8c0.5,3.6,1,7.3,1.5,10.9s0.9,7.2,1.7,10.7c0.1,0.2,0.4,0.1,0.4-0.1c-0.1-3.3-0.5-6.6-0.9-9.9
			s-0.7-6.5-1.1-9.7c-0.2-1.6-0.4-3.3-0.6-5c-0.1-0.7-0.2-1.5-0.2-2.2c0-0.8,0.2-1.6,0.6-2.3C187.7,311.9,188.4,310.7,188.9,309.4z"
			/>
		<path class="st2" d="M119,238.2c-15.1,12.5-69.2,58.6-66,74.9c3.3,16.6,15.8,30,25.5,20.7c8-7.6,43.3-64.3,49.7-79.4
			C134.2,240,133.7,226,119,238.2z"/>
		<path class="st3" d="M51.6,308.5c0,11.5,7.7,33.1,22.6,29.1c9.8-2.6,50.3-69.5,56.9-85.4c7.6-18.4,1-25.6-12.9-14.8
			S51.6,292.1,51.6,308.5z"/>
		<path class="st4" d="M93.7,260.5c-0.8,0.3-1.6,0.3-2.4,0.1c-0.1,0-0.2-0.1-0.3-0.2c0.2-0.2,0.4-0.3,0.6-0.5l0.1,0.1
			c0.3,0.2,0.6,0.3,0.9,0.3C92.9,260.3,93.3,260.4,93.7,260.5z M76.7,299.7c0.4,0,0.7,0.1,1,0.3c0.5,0.3,0.9,0.9,0.9,1.5
			c0,0.9,0.5,1.8,1.4,2.1c0.8,0.2,1.6,0.2,2.4-0.1c-0.4-0.1-0.8-0.1-1.1-0.2c-0.3,0-0.7-0.1-0.9-0.3c-0.5-0.3-0.8-0.9-0.8-1.5
			c0-0.9-0.6-1.8-1.5-2.1c-0.8-0.2-1.6-0.1-2.4,0.1C75.9,299.5,76.3,299.6,76.7,299.7z M79.2,331.5c-0.8-0.2-1.6-0.1-2.4,0.1
			c0.4,0.1,0.7,0.2,1.1,0.2c0.3,0,0.7,0.1,0.9,0.3c0.4,0.3,0.7,0.7,0.8,1.2l0.7-0.7C80.2,332.1,79.7,331.7,79.2,331.5L79.2,331.5z
			 M98.2,285.1c-0.2,0.2-0.6,0.4-0.9,0.5c-0.6,0.1-1.2,0-1.7-0.4c-0.6-0.7-1.6-0.9-2.5-0.5c-0.9,0.4-1.2,1.1-1.6,1.7
			c0.3-0.2,0.6-0.4,1-0.6c0.7-0.7,1.8-0.6,2.5,0.1c0.7,0.6,1.7,0.8,2.5,0.4c0.7-0.4,1.2-1,1.6-1.8C98.8,284.7,98.5,284.9,98.2,285.1
			L98.2,285.1z M115.8,241.6c0,0.4-0.1,0.7-0.3,1c-0.3,0.5-0.9,0.9-1.5,0.9c-0.9,0-1.8,0.5-2.1,1.4c-0.2,0.8-0.2,1.6,0.1,2.4
			c0.1-0.4,0.1-0.8,0.2-1.1c0-0.3,0.1-0.7,0.3-0.9c0.3-0.5,0.9-0.8,1.5-0.8c0.9,0,1.8-0.6,2.1-1.5c0.2-0.8,0.1-1.6-0.1-2.4
			C115.9,240.9,115.9,241.3,115.8,241.6L115.8,241.6z M113.5,266.3c0,0.4-0.1,0.7-0.3,1c-0.3,0.5-0.9,0.9-1.5,0.9
			c-0.9,0-1.8,0.5-2.1,1.4c-0.2,0.8-0.2,1.6,0.1,2.4c0.1-0.4,0.1-0.8,0.2-1.1c0-0.3,0.1-0.7,0.3-0.9c0.3-0.5,0.9-0.8,1.5-0.8
			c0.9,0,1.8-0.6,2.1-1.5c0.2-0.8,0.1-1.6-0.1-2.4C113.7,265.6,113.6,266,113.5,266.3L113.5,266.3z M66.2,318.9c0,0.4-0.1,0.7-0.3,1
			c-0.3,0.5-0.9,0.9-1.5,0.9c-0.9,0-1.8,0.5-2.1,1.4c-0.2,0.8-0.2,1.6,0.1,2.4c0.1-0.4,0.1-0.8,0.2-1.1c0-0.3,0.1-0.7,0.3-0.9
			c0.3-0.5,0.9-0.8,1.5-0.8c0.9,0,1.8-0.6,2.1-1.5c0.2-0.8,0.1-1.6-0.1-2.4C66.3,318.2,66.2,318.6,66.2,318.9z M128.4,254.3
			c-0.7,0.4-1.2,1-1.6,1.8c0.3-0.2,0.6-0.4,0.9-0.6c0.2-0.2,0.6-0.4,0.9-0.5c0.4-0.1,0.8-0.1,1.2,0.1c0.1-0.3,0.3-0.5,0.4-0.8
			C129.6,254,129,254,128.4,254.3L128.4,254.3z"/>
		<path class="st0" d="M121.4,275.4c-1.4,1.9-2.8,3.7-4.3,5.5l-1,1.3c0.9-1.7,1.8-3.5,2.6-5.2c1.3-2.5,2.5-5.1,3.5-7.7
			c0.1-0.2-0.2-0.2-0.3-0.1c-1.4,2.1-2.4,4.4-3.7,6.5s-2.5,4.4-3.7,6.5c-2.5,4.4-5,8.7-7.6,13c-5.2,8.6-10.8,16.9-16.5,25.1
			c-1.6,2.3-3.2,4.6-4.9,6.9s-3.3,4.7-5,7c-0.1,0.1,0,0.2,0.1,0.1c1.6-2,3.3-3.9,4.9-5.8s3.1-3.9,4.6-5.9c3.1-4,6-8.1,8.9-12.2
			c5.7-8.3,11-17,15.8-25.9c0.1-0.2,0.2-0.5,0.4-0.7c0.8-0.9,1.6-1.8,2.4-2.7c1.4-1.8,2.7-3.7,3.9-5.6
			C121.7,275.4,121.5,275.3,121.4,275.4z"/>
		<path class="st2" d="M152.6,226.3c0,0,3.3,13.6-0.6,15.4c-7.4,3.5-20.5-7.3-21.4-9.3c-0.2-0.5-1.3-13.5-2.1-23.6
			c-0.5-6.5-1-11.8-1-11.8l25.8,10.2l-0.6,17.8L152.6,226.3z"/>
		<path class="st0" d="M153.2,207.2l-0.6,17.8c-10-1.7-18.8-7.6-24.2-16.2c-0.5-6.5-1-11.8-1-11.8l3.2,1.2L153.2,207.2z"/>
		<path class="st1" d="M157.8,187.5c0.1,7.3,5.4,13.1,11.8,13s11.5-6.1,11.4-13.4s-5.4-13.1-11.8-13S157.7,180.2,157.8,187.5z"/>
		<path class="st5" d="M154,188c0.1,8.1,6,14.6,13.1,14.5s12.8-6.8,12.7-14.9s-6-14.6-13.1-14.5S153.9,179.9,154,188z"/>
		<path class="st2" d="M176,182.9c1.2,31.3-17.4,35.5-24.2,35.7c-6.1,0.2-27,0.2-31.4-30.8s9.8-41.4,23.8-42.7
			S174.8,151.7,176,182.9z"/>
		<path class="st0" d="M168.2,177c-0.7-0.1-1.4-0.3-2.1-0.5c-0.8-0.1-1.5-0.4-2.1-0.9c-0.3-0.4-0.3-1,0-1.4c0.7-0.7,1.8-0.9,2.7-0.6
			c1,0.2,1.9,0.7,2.5,1.5c0.4,0.5,0.2,1.3-0.3,1.7C168.8,177,168.5,177.1,168.2,177z"/>
		<path class="st0" d="M147.8,177.8c0.7-0.1,1.4-0.3,2.1-0.5c0.8-0.1,1.5-0.4,2.1-0.9c0.3-0.4,0.3-1,0-1.4c-0.7-0.7-1.8-0.9-2.7-0.6
			c-1,0.2-1.9,0.7-2.5,1.5c-0.4,0.5-0.2,1.3,0.3,1.7C147.3,177.8,147.5,177.8,147.8,177.8z"/>
		<path class="st0" d="M152.9,185.6c0-0.1-0.2,0.1-0.2,0.2c0.2,2.1,0,4.6-1.9,5.4c-0.1,0,0,0.1,0,0.1
			C153.2,190.9,153.4,187.6,152.9,185.6z"/>
		<path class="st0" d="M150.9,183.5c-3.4-0.1-3.4,6.8-0.2,6.9S153.8,183.6,150.9,183.5z"/>
		<path class="st0" d="M149.6,183.9c-0.6,0.4-1.2,1.1-1.9,1.2s-1.5-0.6-2-1.3c-0.1-0.1-0.1,0-0.1,0.1c0,1.3,0.5,2.7,1.9,2.9
			s2.2-1,2.5-2.3C150,184.1,149.8,183.8,149.6,183.9z"/>
		<path class="st0" d="M164.3,184.8c0-0.1,0.2,0.1,0.2,0.2c-0.1,2.1,0.2,4.6,2.1,5.3c0.1,0,0.1,0.1,0,0.1
			C164.2,190,163.9,186.8,164.3,184.8z"/>
		<path class="st0" d="M166.2,182.5c3.4-0.3,3.7,6.6,0.5,6.9S163.3,182.8,166.2,182.5z"/>
		<path class="st0" d="M167.7,182.9c0.6,0.3,1.1,1,1.8,1s1.3-0.8,1.7-1.5c0.1-0.1,0.1,0,0.1,0.1c0.1,1.3-0.3,2.7-1.5,3
			s-2-0.8-2.4-2.1C167.3,183.1,167.4,182.8,167.7,182.9z"/>
		<path class="st0" d="M153.1,202.2c0.5,0.5,1,1.2,1.8,1.3c0.8,0,1.6-0.1,2.3-0.5c0,0,0.1,0,0.1,0c0,0,0,0.1,0,0.1
			c-0.7,0.8-1.7,1.2-2.8,1.1c-0.9-0.3-1.5-1-1.6-2C152.9,202.1,153.1,202.1,153.1,202.2z"/>
		<path class="st0" d="M161.9,194.3c0,0,0.5,3.2,0.5,4.7c0,0.1-0.4,0.2-0.9,0.2c0,0,0,0-0.1,0c-2.6,0.5-5.3-0.4-7-2.5
			c-0.1-0.1-0.1-0.2,0-0.2s0.2-0.1,0.2,0l0,0c1.9,1.3,4.2,1.9,6.6,1.7c0.1-0.4-1-5.4-0.8-5.4c1.2,0.1,2.3,0.3,3.4,0.7
			c-0.9-6.6-2.8-13.1-3.5-19.7c0-0.1,0.1-0.2,0.2-0.2c0.1,0,0.1,0,0.2,0.1c2.5,6.6,3.6,14.2,4.7,21.1
			C165.6,195.6,162.5,194.5,161.9,194.3z"/>
		<path class="st0" d="M160.5,198.4c-0.8,1.1-1.8,2.1-3,2.7c-0.7,0.3-1.4,0.4-2.1,0.3c-1.6-0.3-1.7-1.7-1.5-3
			c0.1-0.7,0.3-1.3,0.6-1.9C156.2,197.8,158.3,198.5,160.5,198.4z"/>
		<path class="st6" d="M157.6,201.1c-0.7,0.3-1.4,0.4-2.1,0.3c-1.6-0.3-1.7-1.7-1.5-3C155.6,198.5,157.3,199.5,157.6,201.1z"/>
		<path class="st0" d="M121,185.1c3.4,0.1,13.1-8.4,14.8-24.8c0,0-2.6,14.6-3.9,16.6s5.4-4.8,7-17.9c0,0,6.8,5.9,12.9,8.3
			s9.9,2.6,10.4,2.2s-8.4-4.1-10.6-7.2c0,0,15.9,9.2,23.4,10.5c0.9,0.1-0.6-13.5-11.7-22.3s-26.4-6.6-31.9-2.2c0,0-6,0.3-13.2,8.5
			S117.3,185,121,185.1z"/>
		<path class="st2" d="M125.5,190.1c0,0-6.3-10.1-10.9-7.9s-0.1,16.6,5,18.8c2.6,1.3,5.8,0.3,7.1-2.3c0-0.1,0.1-0.1,0.1-0.2
			L125.5,190.1z"/>
		<path class="st0" d="M116,186.3C115.9,186.4,115.9,186.4,116,186.3c0,0.1,0,0.1,0,0.1c3.6,1.7,5.3,5.1,6.5,8.7
			c-1-1.4-2.5-2.2-4.3-1c-0.1,0.1,0,0.2,0.1,0.2c1.3-0.3,2.7,0.2,3.5,1.3c0.6,0.9,1.2,1.9,1.6,3c0.2,0.3,0.8,0.2,0.6-0.2v-0.1
			C124.2,193.8,120.9,187,116,186.3z"/>
		<path class="st7" d="M122.6,199.8c0,0.6-0.6,1.1-1.2,1c-0.6,0-1.1-0.6-1-1.2s0.6-1.1,1.2-1C122.2,198.7,122.6,199.2,122.6,199.8z"
			/>
		<path class="st7" d="M119.6,197.7c0,0.4-0.4,0.7-0.7,0.6c0,0,0,0,0,0c-0.4,0-0.7-0.4-0.6-0.7c0-0.4,0.4-0.7,0.8-0.6
			C119.4,197,119.7,197.3,119.6,197.7C119.6,197.7,119.6,197.7,119.6,197.7z"/>
		<path class="st3" d="M114.6,188.4l-2.2,0.4c-0.2,0-0.5-0.1-0.5-0.4l0,0c0-0.2,0.1-0.5,0.4-0.5c0,0,0,0,0,0l2.2-0.4
			c0.2,0,0.5,0.1,0.5,0.4c0,0,0,0,0,0l0,0C115,188.2,114.9,188.4,114.6,188.4z"/>
		<path class="st3" d="M114.4,187.1h-2.2c-0.2,0-0.4-0.2-0.4-0.4l0,0c0-0.2,0.2-0.4,0.4-0.4h2.2c0.2,0,0.4,0.2,0.4,0.4c0,0,0,0,0,0
			l0,0C114.9,186.8,114.7,187,114.4,187.1C114.4,187.1,114.4,187.1,114.4,187.1z"/>
		<path class="st5" d="M119.3,182.4c0,0-2-15.8,2.1-24.9c4.6-10.1,25-17.8,40.3-8.2c0,0-23.6-5.7-34,8.5c-4.4,6-3.1,24.7-3.1,24.7
			L119.3,182.4z"/>
		<path class="st5" d="M134.7,189.5c0.6,8.1-4.7,15.1-11.8,15.5c-7.1,0.5-13.3-5.7-13.9-13.8s4.7-15.1,11.8-15.5
			S134.1,181.4,134.7,189.5z"/>
		<path class="st1" d="M130.9,189.3c0.5,7.3-4.3,13.5-10.6,14s-12-5.1-12.5-12.4s4.3-13.5,10.6-14S130.4,182,130.9,189.3z"/>
		<polygon class="st5" points="147,211.3 136.6,209 127.1,200.9 128.3,199.5 137.5,207.2 147.4,209.4 		"/>
		<path class="st8" d="M145.6,210c0.4-3,8.4-3.4,7.8,1S145.2,212.9,145.6,210z"/>
		<path class="st2" d="M135.8,227.8c-5.6,2.4-10.9,5.3-16.1,8.6c0,0,20.1,20.2,32.3,17.8c12.2-2.5,5.5-21.5,5.5-21.5
			S149.5,222.1,135.8,227.8z"/>
		<path class="st2" d="M79.7,332.4c-9.3,11.3-24.4-1.6-26.1-11.7c-4-23.7,1.2-67.1,8.1-87.6c2.2-6.6,46.2,6,46.3,13.5
			C108.1,254.3,98.6,309.4,79.7,332.4z"/>
		<path class="st2" d="M60.6,244.9c0,0,0.7-21.7,8.4-36.2c5.3-10,19.4-30.5,53.2-31.9c8-0.3,19.7,4.9,6.8,10.2
			c-9.2,3.8-16.1,3.4-21,6.6c0,0,14.1,8.4,14.1,16.4c0,7-0.4,14.1-1.4,21.1c-1.3,0.1-2.7,0.1-4,0.1c0,0-0.2,7.5-8.6,15.4L60.6,244.9
			z"/>
		<path class="st2" d="M75.6,200c5.6-2.1,17.4-6.4,28.3-6.5c12.1-0.1,35.5,2.9,35.5,11.8c0,6.6-9,6.2-9,6.2s9.4,3.3,8.1,9.2
			c-1.2,5.4-8.1,4.7-8.1,4.7s5.4,3,3.2,8c-2.6,6-13.4-1.2-21.3,2.6C110.6,236.8,75.6,200,75.6,200z"/>
		<path class="st0" d="M101.9,206.3c5.6-1.1,18.8-0.5,28.4,5c0.2,0.1,0.2,0.4,0,0.3c-9.2-2.9-18.8-4.6-28.4-5.1
			C101.9,206.4,101.9,206.3,101.9,206.3z"/>
		<path class="st0" d="M102.4,218.5c4.9-0.5,18.5,0.8,28,6.6c0.2,0.1,0.2,0.4,0,0.3c-9-3.3-18.4-5.6-28-6.8
			C102.4,218.6,102.4,218.6,102.4,218.5C102.4,218.6,102.4,218.5,102.4,218.5C102.4,218.5,102.4,218.5,102.4,218.5z"/>
		<path class="st0" d="M138.4,201.4c-1.3-1.5-3.2-2-4.8-3c-0.1,0-0.2,0.1-0.1,0.1c2.9,1.2,5.9,4.1,5.4,7.5c-0.6,4.1-5.5,5.1-8.9,5.2
			c-0.2,0-0.1,0.2,0.1,0.2c3.8,0.7,9.1-0.6,9.8-5.1C140.2,204.5,139.6,202.7,138.4,201.4z"/>
		<path class="st0" d="M129.6,211c-0.1,0-0.2,0.1-0.1,0.1c5.2,2,8.4,5.6,8.7,7.7c0.4,2-0.5,4.1-2.3,5.2c-1.8,1-4,1.3-6,0.9
			c-0.2,0-0.2,0.2-0.1,0.2c2.4,0.5,7.1,1,8.9-3C140.2,219,138.6,213.5,129.6,211z"/>
		<path class="st0" d="M133.5,227.8c-1-1.5-2.5-2.5-4.3-3c-0.1,0-0.1,0.1-0.1,0.1c2.4,1,4.7,4,4.5,6.6c-0.1,1.4-1.1,4.1-7,3.8
			c-1.6-0.1-3.2-0.2-4.8-0.4c-1.1-0.1-0.4,0.2-0.1,0.3c3.6,0.7,12.5,2.8,12.7-4.1C134.4,229.9,134.1,228.7,133.5,227.8z"/>
		<path class="st0" d="M135.1,181.4c-0.2-1.5-2.1-3-5.8-3.7l0,0c3,0.8,5.2,2.4,5.2,3.9s-1.1,3-4.3,4.7c-0.1,0,0,0.1,0.1,0.1
			C132.2,185.5,135.5,184.1,135.1,181.4z"/>
		<path class="st3" d="M58.3,236.7l54.4,18.3c0,0-19.8,61-29.2,74.2s-22.3,10.7-29.8-5.5S58.3,236.7,58.3,236.7z"/>
		<path class="st4" d="M87,256.4c0.8-0.3,1.6-0.3,2.4-0.1c0.9,0.3,1.5,1.2,1.5,2.1c0,0.6,0.3,1.2,0.8,1.5c0.3,0.2,0.6,0.3,0.9,0.3
			c0.4,0.1,0.8,0.1,1.1,0.2c-0.8,0.3-1.6,0.3-2.4,0.1c-0.9-0.4-1.4-1.2-1.4-2.1c0-0.6-0.3-1.2-0.9-1.5c-0.3-0.2-0.6-0.3-1-0.3
			C87.7,256.6,87.4,256.5,87,256.4z M76.7,299.7c0.4,0,0.7,0.1,1,0.3c0.5,0.3,0.9,0.9,0.9,1.5c0,0.9,0.5,1.8,1.4,2.1
			c0.8,0.2,1.6,0.2,2.4-0.1c-0.4-0.1-0.8-0.1-1.1-0.2c-0.3,0-0.7-0.1-0.9-0.3c-0.5-0.3-0.8-0.9-0.8-1.5c0-0.9-0.6-1.8-1.5-2.1
			c-0.8-0.2-1.6-0.1-2.4,0.1C75.9,299.5,76.3,299.6,76.7,299.7z M79.2,331.5c-0.8-0.2-1.6-0.1-2.4,0.1c0.4,0.1,0.8,0.1,1.1,0.2
			c0.4,0,0.7,0.1,1,0.3c0.5,0.3,0.8,0.8,0.8,1.3c0.2-0.2,0.5-0.4,0.7-0.7C80.3,332.2,79.8,331.7,79.2,331.5L79.2,331.5z M98.2,285.1
			c-0.2,0.2-0.6,0.4-0.9,0.5c-0.6,0.1-1.2,0-1.7-0.4c-0.6-0.7-1.6-0.9-2.5-0.5c-0.9,0.4-1.2,1.1-1.6,1.7c0.3-0.2,0.6-0.4,1-0.6
			c0.7-0.7,1.8-0.6,2.5,0.1c0.7,0.6,1.7,0.8,2.5,0.4c0.7-0.4,1.2-1,1.6-1.8C98.8,284.7,98.5,284.9,98.2,285.1L98.2,285.1z M61.2,289
			c-0.2,0.2-0.5,0.4-0.9,0.5c-0.6,0.2-1.2,0-1.7-0.4c-0.6-0.7-1.6-0.9-2.5-0.5c-0.9,0.4-1.2,1.1-1.6,1.7c0.3-0.2,0.6-0.4,1-0.6
			c0.2-0.2,0.6-0.4,0.9-0.5c0.6-0.1,1.2,0.1,1.7,0.5c0.7,0.6,1.7,0.8,2.5,0.4c0.7-0.4,1.2-1,1.6-1.8C61.7,288.5,61.5,288.8,61.2,289
			L61.2,289z M67.2,248.9c-0.2,0.2-0.6,0.4-0.9,0.5c-0.6,0.2-1.2,0-1.7-0.4c-0.6-0.7-1.6-0.9-2.5-0.5c-0.9,0.4-1.2,1.1-1.6,1.7
			c0.3-0.2,0.6-0.4,1-0.6c0.2-0.2,0.6-0.4,0.9-0.5c0.6-0.1,1.2,0.1,1.7,0.5c0.7,0.6,1.7,0.8,2.5,0.4c0.7-0.4,1.2-1,1.6-1.8
			C67.8,248.4,67.5,248.7,67.2,248.9L67.2,248.9z M73.4,269.7c0,0.4-0.1,0.7-0.3,1c-0.3,0.5-0.9,0.9-1.5,0.9c-0.9,0-1.8,0.5-2.1,1.4
			c-0.2,0.8-0.2,1.6,0.1,2.4c0.1-0.4,0.1-0.8,0.2-1.1c0-0.3,0.1-0.7,0.3-0.9c0.3-0.5,0.9-0.8,1.5-0.8c0.9,0,1.8-0.6,2.1-1.5
			c0.2-0.8,0.1-1.6-0.1-2.4C73.5,268.9,73.4,269.3,73.4,269.7L73.4,269.7z M66.2,318.9c0,0.4-0.1,0.7-0.3,1
			c-0.3,0.5-0.9,0.9-1.5,0.9c-0.9,0-1.8,0.5-2.1,1.4c-0.2,0.8-0.2,1.6,0.1,2.4c0.1-0.4,0.1-0.8,0.2-1.1c0-0.3,0.1-0.7,0.3-0.9
			c0.3-0.5,0.9-0.8,1.5-0.8c0.9,0,1.8-0.6,2.1-1.5c0.2-0.8,0.1-1.6-0.1-2.4C66.3,318.2,66.2,318.6,66.2,318.9L66.2,318.9z"/>
		<path class="st0" d="M106.6,265.2c-3-1.4-6-2.5-9.1-3.6c-3.1-1.2-6.2-2.3-9.3-3.3c-6.1-2.1-12.2-3.9-18.3-5.8
			c-3.6-1.1-7.2-2-10.7-3c-0.1,0-0.2,0.2-0.1,0.3c6.2,2.3,12.3,4.7,18.5,6.9c6.2,2.2,12.2,4.2,18.3,5.9c1.8,0.5,3.5,1,5.3,1.5
			c1.8,0.6,3.6,1.1,5.5,1.5C106.7,265.5,106.7,265.2,106.6,265.2z"/>
		<path class="st0" d="M113.8,255.1c-0.1-0.5-6.2-2.1-6.5-2.2c-0.1,0-0.1,0.1,0,0.2c0.3,0.1,5.4,2.2,5.4,2.3c-3,8-5.7,16.1-8.6,24.1
			s-5.8,16.1-8.6,24.2c-1.5,4.6-1.4,5,0.2,1.1s3.3-7.1,4.8-11.1c3-8,5.8-16.1,8.6-24.2C110.7,264.9,113.8,255.3,113.8,255.1z"/>
	</g>
	<g id="Calendar">
		<polygon class="st9" points="450.7,359.4 383.5,359.4 371.8,310.7 438.9,310.7 		"/>
		<polygon class="st10" points="359.8,359.4 427,359.4 438.8,310.7 371.6,310.7 		"/>
		<polygon class="st7" points="429,319.9 427.5,326.1 427.4,326.5 425.9,332.9 425.8,333.3 424.2,339.8 424.1,340.2 422.6,346.6 
			422.5,347 421,353.3 371.7,353.3 373.2,347 373.3,346.6 374.8,340.2 374.9,339.8 376.5,333.3 376.6,332.9 378.1,326.5 
			378.2,326.1 379.7,319.9 		"/>
		<polygon class="st11" points="386.9,319.9 385.4,326.1 385.3,326.5 383.8,332.9 383.7,333.3 382.1,339.8 382.1,340.2 380.5,346.6 
			380.4,347 378.9,353.3 378.5,353.3 380,347 380.1,346.6 381.7,340.2 381.8,339.8 383.3,333.3 383.4,332.9 384.9,326.5 385,326.1 
			386.5,319.9 		"/>
		<polygon class="st11" points="393.9,319.9 392.4,326.1 392.4,326.5 390.8,332.9 390.7,333.3 389.2,339.8 389.1,340.2 387.5,346.6 
			387.4,347 385.9,353.3 385.5,353.3 387,347 387.1,346.6 388.7,340.2 388.8,339.8 390.3,333.3 390.4,332.9 392,326.5 392.1,326.1 
			393.5,319.9 		"/>
		<polygon class="st11" points="401,319.9 399.5,326.1 399.4,326.5 397.8,332.9 397.8,333.3 396.2,339.8 396.1,340.2 394.5,346.6 
			394.5,347 392.9,353.3 392.5,353.3 394.1,347 394.2,346.6 395.7,340.2 395.8,339.8 397.3,333.3 397.4,332.9 399,326.5 
			399.1,326.1 400.6,319.9 		"/>
		<polygon class="st11" points="408,319.9 406.5,326.1 406.4,326.5 404.9,332.9 404.8,333.3 403.2,339.8 403.1,340.2 401.6,346.6 
			401.5,347 400,353.3 399.6,353.3 401.1,347 401.2,346.6 402.7,340.2 402.8,339.8 404.4,333.3 404.5,332.9 406,326.5 406.1,326.1 
			407.6,319.9 		"/>
		<polygon class="st11" points="415,319.9 413.5,326.1 413.4,326.5 411.9,332.9 411.8,333.3 410.2,339.8 410.2,340.2 408.6,346.6 
			408.5,347 407,353.3 406.6,353.3 408.1,347 408.2,346.6 409.8,340.2 409.9,339.8 411.4,333.3 411.5,332.9 413,326.5 413.1,326.1 
			414.6,319.9 		"/>
		<polygon class="st11" points="422,319.9 420.6,326.1 420.5,326.5 418.9,332.9 418.8,333.3 417.3,339.8 417.2,340.2 415.6,346.6 
			415.5,347 414,353.3 413.6,353.3 415.1,347 415.2,346.6 416.8,340.2 416.9,339.8 418.4,333.3 418.5,332.9 420.1,326.5 
			420.2,326.1 421.7,319.9 		"/>
		<polygon class="st11" points="427.5,326.1 427.4,326.5 378.1,326.5 378.2,326.1 		"/>
		<polygon class="st11" points="425.9,332.9 425.8,333.3 376.5,333.3 376.6,332.9 		"/>
		<polygon class="st11" points="424.2,339.8 424.1,340.2 374.8,340.2 374.9,339.8 		"/>
		<polygon class="st11" points="422.6,346.6 422.5,347 373.2,347 373.3,346.6 		"/>
		<path class="st3" d="M414,333.6c-0.9,0.5-1.7,1.1-2.4,1.8c-0.7,0.6-1.2,1.5-1.4,2.5c-0.1,0.4,0,0.9,0.3,1.3
			c0.3,0.3,0.7,0.5,1.2,0.6c1,0.2,1.9,0.2,2.9-0.1c1-0.2,1.8-0.6,2.6-1.2c0.4-0.3,0.7-0.7,0.9-1.1c0.2-0.4,0.3-0.9,0.3-1.3
			c-0.1-0.5-0.3-0.9-0.7-1.1c-0.4-0.3-0.9-0.5-1.3-0.6c-1-0.2-2-0.2-3,0c1-0.4,2-0.5,3-0.3c0.5,0.1,1,0.3,1.5,0.5
			c0.5,0.3,0.8,0.8,0.9,1.3c0.1,0.5,0,1.1-0.3,1.6c-0.2,0.5-0.6,0.9-1,1.2c-1.7,1.3-3.8,1.8-5.9,1.4c-0.5-0.1-1-0.4-1.4-0.8
			c-0.2-0.2-0.3-0.5-0.4-0.8c0-0.3,0-0.5,0-0.8c0.2-1,0.8-2,1.6-2.6C412.2,334.5,413.1,334,414,333.6z"/>
		<polygon class="st5" points="385.4,321.6 380.1,321.6 380.3,321 385.5,321 		"/>
		<polygon class="st5" points="383,322.7 379.9,322.7 380,322 383.1,322 		"/>
		<polygon class="st5" points="406.7,341.7 403.5,341.7 403.6,341.1 406.8,341.1 		"/>
		<polygon class="st5" points="406.2,343.9 403,343.9 403.1,343.3 406.3,343.3 		"/>
		<polygon class="st5" points="408.2,342.8 403.2,342.8 403.4,342.2 408.4,342.2 		"/>
		<polygon class="st5" points="414.9,336.8 411.7,336.8 411.9,336.2 415.1,336.2 		"/>
		<polygon class="st5" points="416.5,337.9 411.5,337.9 411.6,337.2 416.6,337.2 		"/>
		<path class="st9" d="M372.1,325l3.1-2.3c0.3-0.2,0.6-0.6,0.7-1c0.1-0.3,0-0.7-0.1-0.9c-0.2-0.3-0.6-0.5-0.9-0.5
			c-0.4,0-0.7,0.1-1,0.4l-0.3,0.2c-0.1,0.1-0.2,0.1-0.3,0c-0.1-0.1,0-0.2,0.1-0.2c0,0,0,0,0,0l0.3-0.2c0.4-0.3,0.8-0.4,1.3-0.5
			c0.5,0,0.9,0.2,1.2,0.6c0.2,0.4,0.3,0.8,0.2,1.2c-0.1,0.5-0.5,1-0.9,1.3l-2.6,2h2.6c0.1,0,0.1,0.1,0.1,0.1c0,0,0,0,0,0.1
			c0,0.1-0.1,0.2-0.2,0.2h-3.1c0,0-0.1,0-0.1,0C372,325.3,372,325.1,372.1,325C372.1,325,372.1,325,372.1,325z"/>
		<path class="st9" d="M370.6,331.9c0.2-0.7,0.5-1.4,1-1.9c0.4-0.5,0.9-0.8,1.5-0.8c0.5,0,1,0.3,1.2,0.8c0.2,0.6,0.3,1.3,0.1,1.9
			c-0.2,0.7-0.5,1.4-1,1.9c-0.4,0.5-0.9,0.8-1.6,0.8c-0.5,0-1-0.3-1.2-0.8C370.5,333.2,370.4,332.6,370.6,331.9z M371,331.9
			c-0.2,0.6-0.1,1.1,0.1,1.7c0.1,0.4,0.5,0.6,0.9,0.6c0.5,0,0.9-0.3,1.2-0.6c0.4-0.5,0.7-1.1,0.9-1.7c0.2-0.6,0.1-1.2-0.1-1.7
			c-0.1-0.4-0.5-0.6-0.9-0.6c-0.5,0-0.9,0.3-1.2,0.6C371.4,330.7,371.1,331.3,371,331.9z"/>
		<path class="st9" d="M367.8,343.7l3.1-2.3c0.3-0.2,0.6-0.6,0.7-1c0.1-0.3,0-0.7-0.1-0.9c-0.2-0.3-0.6-0.5-0.9-0.5
			c-0.4,0-0.7,0.1-1,0.4l-0.3,0.2c-0.1,0.1-0.2,0.1-0.2,0c0,0,0,0,0,0c-0.1-0.1,0-0.2,0.1-0.3c0,0,0,0,0,0l0.3-0.2
			c0.4-0.3,0.8-0.4,1.3-0.5c0.5,0,0.9,0.2,1.2,0.6c0.2,0.4,0.3,0.8,0.2,1.2c-0.1,0.5-0.5,1-0.9,1.3l-2.6,2h2.6
			c0.1,0,0.2,0.1,0.2,0.1c0,0,0,0,0,0c0,0.1-0.1,0.2-0.2,0.2h-3.1c0,0-0.1,0-0.1,0C367.7,344,367.7,343.8,367.8,343.7
			C367.8,343.7,367.8,343.7,367.8,343.7z"/>
		<path class="st9" d="M366.3,350.6c0.2-0.7,0.5-1.4,1-1.9c0.4-0.5,1-0.8,1.6-0.8c0.5,0,1,0.3,1.2,0.8c0.2,0.6,0.3,1.3,0.1,1.9
			c-0.2,0.7-0.5,1.4-1,1.9c-0.4,0.5-0.9,0.8-1.5,0.8c-0.5,0-1-0.3-1.2-0.8C366.2,351.9,366.1,351.2,366.3,350.6z M366.7,350.6
			c-0.1,0.6-0.1,1.1,0.1,1.7c0.1,0.4,0.5,0.6,0.9,0.6c0.5,0,0.9-0.3,1.2-0.6c0.4-0.5,0.7-1.1,0.9-1.7c0.1-0.6,0.1-1.1-0.1-1.7
			c-0.1-0.4-0.5-0.6-0.9-0.6c-0.5,0-0.9,0.3-1.2,0.6C367.1,349.4,366.8,350,366.7,350.6z"/>
		<path class="st9" d="M373.7,314c-0.5,0-1-0.3-1.3-0.6c-0.6-0.9-0.8-2-0.3-3c0.5-1.5,1.6-2.2,2.4-2c0.7,0.1,1.4,0.8,1.3,2.3
			c0,0.2-0.2,0.4-0.4,0.4c0,0,0,0,0,0c-0.2,0-0.4-0.2-0.4-0.5c0.1-0.8-0.2-1.3-0.6-1.4s-1.2,0.4-1.5,1.4c-0.3,0.7-0.2,1.5,0.2,2.2
			c0.2,0.2,0.4,0.3,0.7,0.3c0.2,0,0.4,0.1,0.5,0.4c0,0.2-0.1,0.4-0.4,0.5L373.7,314z"/>
		<path class="st9" d="M378.9,314c-0.5,0-1-0.3-1.3-0.6c-0.6-0.9-0.8-2-0.3-3c0.5-1.5,1.6-2.2,2.4-2c0.7,0.1,1.4,0.8,1.3,2.3
			c0,0.2-0.2,0.4-0.5,0.4c-0.2,0-0.4-0.2-0.4-0.5c0.1-0.8-0.2-1.3-0.6-1.4s-1.2,0.4-1.5,1.4c-0.3,0.7-0.3,1.5,0.2,2.2
			c0.2,0.2,0.4,0.3,0.7,0.3c0.2,0,0.4,0.1,0.5,0.4c0,0.2-0.1,0.4-0.4,0.5L378.9,314z"/>
		<path class="st9" d="M384,314c-0.5,0-1-0.3-1.3-0.6c-0.6-0.9-0.8-2-0.3-3c0.5-1.5,1.6-2.2,2.4-2c0.7,0.1,1.4,0.8,1.3,2.3
			c0,0.2-0.2,0.4-0.5,0.4c-0.2,0-0.4-0.2-0.4-0.5c0.1-0.8-0.2-1.3-0.6-1.4s-1.2,0.4-1.5,1.4c-0.3,0.7-0.2,1.5,0.2,2.2
			c0.2,0.2,0.4,0.3,0.7,0.3c0.2,0,0.4,0.1,0.5,0.4c0,0.2-0.1,0.4-0.4,0.5L384,314z"/>
		<path class="st9" d="M389.2,314c-0.5,0-1-0.3-1.3-0.6c-0.6-0.9-0.8-2-0.3-3c0.5-1.5,1.6-2.2,2.4-2c0.7,0.1,1.4,0.8,1.3,2.3
			c0,0.2-0.2,0.4-0.5,0.4c-0.2,0-0.4-0.2-0.4-0.5c0.1-0.8-0.2-1.3-0.6-1.4s-1.2,0.4-1.5,1.4c-0.3,0.7-0.3,1.5,0.2,2.2
			c0.2,0.2,0.4,0.3,0.7,0.3c0.2,0,0.4,0.1,0.5,0.4c0,0.2-0.1,0.4-0.4,0.5L389.2,314z"/>
		<path class="st9" d="M394.4,314c-0.5,0-1-0.3-1.3-0.6c-0.6-0.9-0.8-2-0.3-3c0.5-1.5,1.6-2.2,2.4-2c0.7,0.1,1.4,0.8,1.3,2.3
			c0,0.2-0.2,0.4-0.5,0.4c-0.2,0-0.4-0.2-0.4-0.4c0,0,0,0,0,0c0.1-0.8-0.2-1.3-0.6-1.4s-1.2,0.4-1.5,1.4c-0.3,0.7-0.3,1.5,0.2,2.2
			c0.2,0.2,0.4,0.3,0.7,0.3c0.2,0,0.4,0.1,0.5,0.4c0,0.2-0.1,0.4-0.4,0.5L394.4,314z"/>
		<path class="st9" d="M399.5,314c-0.5,0-1-0.3-1.3-0.6c-0.6-0.9-0.8-2-0.3-3c0.5-1.5,1.6-2.2,2.4-2c0.7,0.1,1.4,0.8,1.3,2.3
			c0,0.2-0.2,0.4-0.4,0.4c0,0,0,0,0,0c-0.2,0-0.4-0.2-0.4-0.5c0.1-0.8-0.2-1.3-0.6-1.4s-1.2,0.4-1.5,1.4c-0.3,0.7-0.3,1.5,0.2,2.2
			c0.2,0.2,0.4,0.3,0.7,0.3c0.2,0,0.4,0.1,0.5,0.4c0,0.2-0.1,0.4-0.3,0.5c0,0,0,0,0,0L399.5,314z"/>
		<path class="st9" d="M404.7,314c-0.5,0-1-0.3-1.3-0.6c-0.6-0.9-0.8-2-0.3-3c0.5-1.5,1.6-2.2,2.4-2c0.7,0.1,1.4,0.8,1.3,2.3
			c0,0.2-0.2,0.4-0.5,0.4c-0.2,0-0.4-0.2-0.4-0.5c0.1-0.8-0.2-1.3-0.6-1.4s-1.2,0.4-1.5,1.4c-0.3,0.7-0.3,1.5,0.2,2.2
			c0.2,0.2,0.4,0.3,0.7,0.3c0.2,0,0.4,0.1,0.5,0.4c0,0.2-0.1,0.4-0.4,0.5L404.7,314z"/>
		<path class="st9" d="M409.9,314c-0.5,0-1-0.3-1.3-0.6c-0.6-0.9-0.8-2-0.3-3c0.5-1.5,1.6-2.2,2.4-2c0.7,0.1,1.4,0.8,1.3,2.3
			c0,0.2-0.2,0.4-0.4,0.4s-0.4-0.2-0.4-0.4c0,0,0-0.1,0-0.1c0.1-0.8-0.2-1.3-0.6-1.4s-1.2,0.4-1.5,1.4c-0.3,0.7-0.2,1.5,0.2,2.2
			c0.2,0.2,0.4,0.3,0.7,0.3c0.2,0,0.4,0.2,0.4,0.4c0,0.2-0.1,0.4-0.3,0.4L409.9,314z"/>
		<path class="st9" d="M415.1,314c-0.5,0-1-0.3-1.3-0.6c-0.6-0.9-0.8-2-0.3-3c0.5-1.5,1.6-2.2,2.4-2c0.7,0.1,1.4,0.8,1.3,2.3
			c0,0.2-0.2,0.4-0.5,0.4c-0.2,0-0.4-0.2-0.4-0.5c0.1-0.8-0.2-1.3-0.6-1.4s-1.2,0.4-1.5,1.4c-0.3,0.7-0.3,1.5,0.2,2.2
			c0.2,0.2,0.4,0.3,0.7,0.3c0.2,0,0.4,0.1,0.5,0.4c0,0.2-0.1,0.4-0.4,0.5L415.1,314z"/>
		<path class="st9" d="M420.2,314c-0.5,0-1-0.3-1.3-0.6c-0.6-0.9-0.8-2-0.3-3c0.5-1.5,1.6-2.2,2.4-2c0.7,0.1,1.4,0.8,1.3,2.3
			c0,0.2-0.2,0.4-0.5,0.4c-0.2,0-0.4-0.2-0.4-0.5c0.1-0.8-0.2-1.3-0.6-1.4s-1.2,0.4-1.5,1.4c-0.3,0.7-0.2,1.5,0.2,2.2
			c0.2,0.2,0.4,0.3,0.7,0.3c0.2,0,0.4,0.1,0.5,0.4c0,0.2-0.1,0.4-0.4,0.5L420.2,314z"/>
		<path class="st9" d="M425.4,314c-0.5,0-1-0.3-1.3-0.6c-0.6-0.9-0.8-2-0.3-3c0.5-1.5,1.6-2.2,2.4-2c0.7,0.1,1.4,0.8,1.3,2.3
			c0,0.2-0.2,0.4-0.5,0.4c-0.2,0-0.4-0.2-0.4-0.5c0.1-0.8-0.2-1.3-0.6-1.4s-1.2,0.4-1.5,1.4c-0.3,0.7-0.3,1.5,0.2,2.2
			c0.2,0.2,0.4,0.3,0.7,0.3c0.2,0,0.4,0.1,0.5,0.4c0,0.2-0.1,0.4-0.4,0.5L425.4,314z"/>
		<path class="st9" d="M430.6,314c-0.5,0-1-0.3-1.3-0.6c-0.6-0.9-0.8-2-0.3-3c0.5-1.5,1.6-2.2,2.4-2c0.7,0.1,1.4,0.8,1.3,2.3
			c0,0.2-0.2,0.4-0.5,0.4c-0.2,0-0.4-0.2-0.4-0.4c0,0,0,0,0,0c0.1-0.8-0.2-1.3-0.6-1.4s-1.2,0.4-1.5,1.4c-0.3,0.7-0.3,1.5,0.2,2.2
			c0.2,0.2,0.4,0.3,0.7,0.3c0.2,0,0.4,0.1,0.5,0.4c0,0.2-0.1,0.4-0.4,0.5L430.6,314z"/>
		<path class="st9" d="M435.7,314c-0.5,0-1-0.3-1.3-0.6c-0.6-0.9-0.8-2-0.3-3c0.5-1.5,1.6-2.2,2.4-2c0.7,0.1,1.4,0.8,1.3,2.3
			c0,0.2-0.2,0.4-0.4,0.4c0,0,0,0,0,0c-0.2,0-0.4-0.2-0.4-0.5c0.1-0.8-0.2-1.3-0.6-1.4s-1.2,0.4-1.5,1.4c-0.3,0.7-0.3,1.5,0.2,2.2
			c0.2,0.2,0.4,0.3,0.7,0.3c0.2,0,0.4,0.1,0.5,0.4c0,0.2-0.1,0.4-0.3,0.5c0,0,0,0,0,0L435.7,314z"/>
	</g>
	<g id="Device">
		<rect x="221.7" y="360.6" class="st1" width="6.9" height="4.5"/>
		<rect x="230.6" y="360.3" class="st1" width="6.9" height="4.5"/>
		<rect x="239.5" y="360" class="st1" width="6.9" height="4.5"/>
		<rect x="248.4" y="359.7" class="st1" width="6.9" height="4.5"/>
		<rect x="257.2" y="359.4" class="st1" width="6.9" height="4.5"/>
		<rect x="266.1" y="359.1" class="st1" width="6.9" height="4.5"/>
		<rect x="275" y="358.8" class="st1" width="6.9" height="4.5"/>
		<rect x="283.9" y="358.5" class="st1" width="6.9" height="4.5"/>
		<rect x="292.8" y="358.2" class="st1" width="6.9" height="4.5"/>
		<polygon class="st8" points="301.4,367.6 220,367.6 220,362.2 301.4,359.9 		"/>
		<polygon class="st1" points="380.8,346.1 246.4,346.1 267.8,246.1 402.2,246.1 		"/>
		<polygon class="st8" points="385.8,346.1 251.4,346.1 272.8,246.1 407.2,246.1 		"/>
		<path class="st0" d="M340.9,290.3c-0.8,4.7-4.9,8.1-9.6,8.3c-3.8,0.1-7-2.9-7.1-6.7c0-0.5,0-1.1,0.1-1.6c0.9-4.7,4.9-8.2,9.6-8.3
			c3.8-0.1,7,2.9,7.1,6.7C341.1,289.2,341,289.8,340.9,290.3z"/>
		<polygon class="st1" points="347.8,372.3 281.7,372.3 281.7,367.1 347.8,365 		"/>
		<polygon class="st1" points="365.8,372.3 330.3,372.3 308.9,316.2 344.4,316.2 		"/>
		<polygon class="st0" points="371.6,372.3 336.1,372.3 314.8,316.2 350.2,316.2 		"/>
		<path class="st8" d="M217.5,373.6h-68.1c-5.8,0,2.6-16.6,23.8-22.9S224.2,367.4,217.5,373.6z"/>
		<path class="st0" d="M190.7,373.6c0.1-1.9,0.4-3.8,0.9-5.6c0.6-1.8,1.3-3.6,2.3-5.2c1-1.6,2.2-3.1,3.6-4.4c1.4-1.3,3-2.3,4.8-3
			c-0.7,0.6-1.6,1-2.2,1.7l-1,0.9l-1,1c-1.3,1.3-2.4,2.8-3.3,4.4c-0.9,1.6-1.7,3.2-2.4,4.9C191.7,370.1,191.2,371.8,190.7,373.6z"/>
		<path class="st0" d="M198.8,357.9c2,0.6,4,1.4,5.9,2.4c1.9,0.9,3.7,2,5.5,3.2c1.8,1.2,3.4,2.7,4.8,4.3c0.7,0.8,1.3,1.7,1.8,2.7
			c0.5,1,0.7,2,0.8,3.1c-0.2-1-0.7-2-1.2-2.9c-0.5-0.9-1.2-1.7-1.9-2.4c-1.5-1.5-3-2.8-4.8-4c-1.7-1.2-3.5-2.3-5.3-3.4
			c-0.9-0.5-1.8-1-2.7-1.5S199.7,358.4,198.8,357.9z"/>
	</g>
	<g id="Line">
		<polygon class="st0" points="121.4,54.3 124.4,54.3 124.4,54.4 		"/>
		<polygon class="st0" points="130.5,54.5 136.6,54.8 136.5,55 130.5,54.6 		"/>
		<polygon class="st0" points="142.6,55.3 148.6,56 148.6,56.3 142.6,55.5 		"/>
		<polygon class="st0" points="154.6,56.8 160.6,57.9 160.5,58.4 154.6,57.2 		"/>
		<polygon class="st0" points="166.5,59.1 172.4,60.6 172.3,61.1 166.4,59.6 		"/>
		<polygon class="st0" points="178.3,62.2 184.1,64 183.9,64.5 178.1,62.7 		"/>
		<polygon class="st0" points="189.8,65.9 195.5,68.1 195.2,68.7 189.6,66.5 		"/>
		<polygon class="st0" points="201.1,70.4 206.6,72.9 206.3,73.5 200.8,71 		"/>
		<polygon class="st0" points="212.1,75.5 217.5,78.3 217.1,79 211.8,76.2 		"/>
		<polygon class="st0" points="222.8,81.3 227.9,84.4 227.5,85.1 222.4,82 		"/>
		<polygon class="st0" points="233.1,87.7 238,91.2 237.6,91.9 232.6,88.4 		"/>
		<polygon class="st0" points="242.9,94.8 247.7,98.5 247.2,99.2 242.4,95.5 		"/>
		<polygon class="st0" points="252.4,102.4 256.9,106.4 256.3,107.1 251.8,103.1 		"/>
		<polygon class="st0" points="261.4,110.5 265.7,114.8 264.9,115.5 260.7,111.2 		"/>
		<polygon class="st0" points="269.8,119.3 273.8,123.8 273.1,124.4 269.1,119.9 		"/>
		<polygon class="st0" points="277.7,128.5 281.4,133.3 280.7,133.8 277,129 		"/>
		<polygon class="st0" points="285,138.1 288.5,143.1 287.8,143.6 284.3,138.6 		"/>
		<polygon class="st0" points="291.8,148.2 294.9,153.4 294.2,153.8 291.1,148.7 		"/>
		<polygon class="st0" points="297.9,158.7 300.7,164.1 300,164.4 297.2,159.1 		"/>
		<polygon class="st0" points="303.3,169.5 305.8,175.1 305.2,175.3 302.7,169.8 		"/>
		<polygon class="st0" points="308.1,180.7 310.3,186.4 309.7,186.6 307.5,180.9 		"/>
		<polygon class="st0" points="312.2,192.1 314,197.9 313.5,198.1 311.7,192.3 		"/>
		<polygon class="st0" points="315.6,203.7 317.1,209.6 316.6,209.7 315.1,203.9 		"/>
		<polygon class="st0" points="318.3,215.6 319.4,221.5 319,221.6 317.8,215.7 		"/>
		<polygon class="st0" points="320.2,227.5 320.9,233.6 320.7,233.6 319.9,227.6 		"/>
		<polygon class="st0" points="321.4,239.6 321.8,245.6 321.7,245.6 321.3,239.6 		"/>
		<polygon class="st0" points="321.9,251.8 321.9,254.8 321.9,251.8 		"/>
	</g>
	<g id="Envelope">
		<polygon class="st3" points="343.5,241.3 278.3,241.3 278.3,186.2 310.9,165.5 343.5,186.2 		"/>
		<polygon class="st4" points="343.5,241.3 278.3,241.3 278.3,186.2 310.9,165.5 343.5,186.2 		"/>
		<polygon class="st11" points="339.8,232.6 282,232.6 282,158.3 324.9,158.3 339.8,172.4 		"/>
		<polygon class="st10" points="324.9,158.3 339.8,172.4 324.9,172.4 		"/>
		<rect x="287.6" y="170.7" class="st10" width="32.2" height="1.9"/>
		<rect x="287.6" y="175.6" class="st10" width="32.2" height="1.9"/>
		<rect x="287.6" y="180.4" class="st10" width="32.2" height="1.9"/>
		<rect x="287.6" y="185.2" class="st10" width="47.1" height="1.9"/>
		<rect x="287.6" y="190" class="st10" width="47.1" height="1.9"/>
		<rect x="287.6" y="194.8" class="st10" width="47.1" height="1.9"/>
		<rect x="287.6" y="199.6" class="st10" width="47.1" height="1.9"/>
		<rect x="287.6" y="204.4" class="st10" width="47.1" height="1.9"/>
		<rect x="287.6" y="209.3" class="st10" width="47.1" height="1.9"/>
		<rect x="287.6" y="214.1" class="st10" width="47.1" height="1.9"/>
		<rect x="287.6" y="218.9" class="st10" width="47.1" height="1.9"/>
		<rect x="287.6" y="223.7" class="st10" width="47.1" height="1.9"/>
		<path class="st3" d="M343.5,200v41.4h-65.2V200c2.8,1.6,5.6,3.2,8.3,4.9s5.5,3.3,8.3,5c3.1,1.9,6.1,3.7,9.2,5.7l0.1-0.1
			c0,0,0,0-0.1,0.1l6.8,4.3c2.3-1.4,4.6-2.9,6.8-4.3l-0.1-0.1l0.1,0c3-1.9,6.1-3.8,9.2-5.7c2.7-1.7,5.5-3.3,8.3-5
			C338,203.2,340.7,201.6,343.5,200z"/>
		<path class="st7" d="M343.5,200c-2.6,1.9-5.3,3.6-8,5.5s-5.4,3.6-8,5.3s-5.6,3.7-8.5,5.5l-0.2,0.2l-7.5,4.8l-0.4,0.2l-0.4-0.2
			l-7.5-4.8l-0.3-0.2c-2.8-1.8-5.7-3.6-8.5-5.5c-2.7-1.8-5.4-3.5-8-5.3s-5.3-3.6-8-5.5c2.8,1.6,5.6,3.2,8.3,4.9s5.5,3.3,8.3,5
			c3.1,1.9,6.1,3.7,9.2,5.7l0,0l6.8,4.3c2.3-1.4,4.6-2.9,6.8-4.3l0,0c3-1.9,6.1-3.8,9.2-5.7c2.7-1.7,5.5-3.3,8.3-5
			C338,203.2,340.7,201.6,343.5,200z"/>
		<path class="st7" d="M304.1,215.5C304.1,215.5,304.1,215.5,304.1,215.5l-1.1,0.9c-1.6,1.4-3.3,2.7-5,4c-2.1,1.6-4.2,3.1-6.3,4.6
			s-4.3,3-6.5,4.4s-4.4,2.8-6.7,4.1c2-1.7,4-3.4,6.1-4.9s4.2-3.1,6.3-4.6s4.3-3,6.5-4.4c1.8-1.1,3.5-2.2,5.4-3.3L304.1,215.5
			L304.1,215.5z"/>
		<path class="st7" d="M343.4,233.4c-2.3-1.3-4.5-2.6-6.7-4.1s-4.4-2.9-6.5-4.4s-4.3-3-6.3-4.6c-1.7-1.3-3.4-2.6-5-4l-1-0.9
			l-0.1-0.1l0.1,0l1.3,0.7c1.8,1,3.6,2.1,5.4,3.3c2.2,1.4,4.4,2.9,6.5,4.4s4.3,3,6.3,4.6S341.4,231.7,343.4,233.4z"/>
	</g>
	<g id="Tool">
		<path class="st3" d="M263.7,68.8c3.6-3.6,9-4.9,13.9-3.3l-7.8,7.8l2.8,5.8l5.8,2.8l7.8-7.8c2.4,7.1-1.4,14.8-8.5,17.1
			s-14.8-1.4-17.1-8.5C258.9,77.8,260.1,72.4,263.7,68.8z"/>
		<path class="st3" d="M239.7,131c-3.6,3.6-9,4.9-13.9,3.2l7.8-7.8l-2.8-5.8l-5.8-2.8l-7.9,7.8c-2.4-7.1,1.4-14.8,8.5-17.1
			c7.1-2.4,14.8,1.4,17.1,8.5C244.6,122,243.4,127.4,239.7,131L239.7,131z"/>
		
			<rect x="226.7" y="94.4" transform="matrix(0.7071 -0.7071 0.7071 0.7071 2.5646 207.0512)" class="st3" width="49" height="12.1"/>
	</g>
	<g id="Clock">
		<circle class="st3" cx="135.3" cy="63" r="42"/>
		<circle class="st4" cx="136.7" cy="64.3" r="40"/>
		<circle class="st7" cx="136.7" cy="64.3" r="37.5"/>
		<path class="st12" d="M173.4,56.3c-17.1,10.3-45.1,27.3-60.8,36.6c-4.4-3.7-7.9-8.4-10.2-13.8l51.8-48
			C164,36.3,171,45.5,173.4,56.3z"/>
		<path class="st12" d="M174.2,65.6c-0.1,4.2-1,8.3-2.4,12.2L125,99.9c-2-0.7-4-1.5-5.9-2.5C133.2,89.2,159,74.3,174.2,65.6z"/>
		<rect x="136.4" y="29.5" class="st5" width="0.7" height="5.7"/>
		<rect x="120.4" y="33.8" transform="matrix(0.866 -0.5 0.5 0.866 -2.1402 65.2952)" class="st5" width="0.7" height="5.7"/>
		<rect x="108.7" y="45.5" transform="matrix(0.5 -0.866 0.866 0.5 12.691 118.6347)" class="st5" width="0.7" height="5.7"/>
		<rect x="102" y="63.9" class="st5" width="5.7" height="0.7"/>
		
			<rect x="106.3" y="79.9" transform="matrix(0.8659 -0.5002 0.5002 0.8659 -25.5054 65.3224)" class="st5" width="5.7" height="0.7"/>
		
			<rect x="117.9" y="91.6" transform="matrix(0.4995 -0.8663 0.8663 0.4995 -19.1959 150.6318)" class="st5" width="5.7" height="0.7"/>
		<rect x="136.4" y="93.4" class="st5" width="0.7" height="5.7"/>
		<rect x="152.3" y="89.1" transform="matrix(0.866 -0.5 0.5 0.866 -25.5102 88.655)" class="st5" width="0.7" height="5.7"/>
		<rect x="164.6" y="76.7" transform="matrix(0.4983 -0.867 0.867 0.4983 13.816 182.8871)" class="st5" width="0.7" height="5.7"/>
		<rect x="165.8" y="63.9" class="st5" width="5.7" height="0.7"/>
		<rect x="161.5" y="48" transform="matrix(0.8659 -0.5002 0.5002 0.8659 -2.1322 88.6837)" class="st5" width="5.7" height="0.7"/>
		
			<rect x="149.8" y="36.3" transform="matrix(0.4995 -0.8663 0.8663 0.4995 44.6751 150.5991)" class="st5" width="5.7" height="0.7"/>
		<polygon class="st1" points="137.3,32.1 138.5,66.8 135,66.8 136.3,32.1 		"/>
		<polygon class="st0" points="158.9,52.2 135.5,67.1 133.8,64 158.4,51.3 		"/>
		<path class="st3" d="M137.9,64.3c0,0.7-0.5,1.2-1.2,1.2c-0.7,0-1.2-0.5-1.2-1.2c0-0.7,0.5-1.2,1.2-1.2
			C137.4,63.1,137.9,63.6,137.9,64.3z"/>
	</g>
	<g id="Speech_Bubble">
		<path class="st7" d="M260.9,175.8c-1.7,16.6-16.6,28.7-33.3,27c-6.5-0.7-12.5-3.4-17.3-7.8l-15.1,2.2l7.6-13.1
			c-6.3-15.5,1.1-33.2,16.6-39.5c15.5-6.3,33.2,1.1,39.5,16.6C260.7,165.9,261.4,170.9,260.9,175.8L260.9,175.8z"/>
		<path class="st0" d="M260.9,175.8c-0.6,5.6-2.7,10.9-6.1,15.3c-0.8,1.1-1.8,2.2-2.7,3.2c-1,1-2.1,1.9-3.2,2.7
			c-5.6,4.3-12.6,6.5-19.7,6.1c-1.4,0-2.8-0.2-4.2-0.4c-5.6-1-10.8-3.6-15-7.4l0.4,0.1l-15.1,2.4l-1.1,0.2l0.6-1l7.5-13.1v0.5
			c-3.6-8.8-2.9-18.8,1.9-27c2.4-4,5.6-7.5,9.5-10.1c3.9-2.6,8.3-4.2,12.9-4.9c9.3-1.3,18.7,1.8,25.4,8.4
			C258.5,157.3,261.9,166.5,260.9,175.8z M260.9,175.8c1.7-16.5-10.2-31.2-26.7-32.9c-2.5-0.3-5.1-0.2-7.6,0.2
			c-4.5,0.7-8.8,2.4-12.5,4.9c-3.7,2.6-6.8,6-9.1,9.9c-2.2,3.9-3.5,8.3-3.8,12.8c-0.3,4.5,0.4,9,2.1,13.2l0.1,0.3l-0.1,0.2
			l-7.6,13.1l-0.5-0.8l15.2-2.1h0.2l0.1,0.1c4,3.8,9.1,6.4,14.5,7.5c1.4,0.3,2.7,0.4,4.1,0.5c4.2,0.3,8.3-0.3,12.2-1.8
			c2.6-0.9,5.1-2.3,7.3-3.9c2.3-1.6,4.3-3.6,6-5.8C258.1,186.7,260.2,181.4,260.9,175.8z"/>
		<path class="st0" d="M247.6,173.6c0,2-1.6,3.7-3.7,3.7c-2,0-3.7-1.6-3.7-3.7c0-2,1.6-3.7,3.7-3.7
			C246,169.9,247.6,171.6,247.6,173.6C247.6,173.6,247.6,173.6,247.6,173.6z"/>
		<path class="st0" d="M234.5,173.6c0,2-1.6,3.7-3.7,3.7c-2,0-3.7-1.6-3.7-3.7c0-2,1.6-3.7,3.7-3.7c0,0,0,0,0,0
			C232.9,169.9,234.5,171.6,234.5,173.6C234.5,173.6,234.5,173.6,234.5,173.6z"/>
		<path class="st0" d="M221.4,173.6c0,2-1.6,3.7-3.7,3.7s-3.7-1.6-3.7-3.7s1.6-3.7,3.7-3.7l0,0C219.7,169.9,221.4,171.6,221.4,173.6
			C221.4,173.6,221.4,173.6,221.4,173.6z"/>
	</g>
</g>
</svg>
