<?xml version="1.0" encoding="utf-8"?>
<!-- Generator: Adobe Illustrator 24.0.2, SVG Export Plug-In . SVG Version: 6.00 Build 0)  -->
<svg version="1.1" id="Capa_1" xmlns="http://www.w3.org/2000/svg" xmlns:xlink="http://www.w3.org/1999/xlink" x="0px" y="0px"
	 viewBox="0 0 405.2 295.7" style="enable-background:new 0 0 405.2 295.7;" xml:space="preserve">
<g>
	<path d="M50,17.5c-13.1,0-26.1,0.1-39.1,0c-4.6,0-8.1-3.4-8.2-7.5C2.6,5.6,6.1,2.3,11.1,2c0.7,0,1.3,0,2,0C27,2,41,2,55,2
		c6.7,0,8.6,1.5,10.3,8.1C81.2,71.6,97,133,112.9,194.5c1,4,1.8,8,3.2,11.9c0.5,1.3,2.4,2.6,3.9,3.1c1.6,0.5,3.6,0.1,5.4,0.1
		c75.8,0,151.6,0,227.4,0c1.5,0,2.9,0,4.8,0c9.1-43.3,18.2-86.4,27.5-130.3c-2.4-0.1-4.4-0.3-6.5-0.3c-87,0-173.9,0-260.9,0
		c-2,0-4.5,0.5-5.7-0.5c-2.2-1.8-4.5-4.4-5.1-7c-0.7-3.4,1.6-6.3,5.2-7.4c1.7-0.5,3.6-0.5,5.4-0.5c91.7,0,183.5,0,275.2,0
		c8.4,0,11.1,3.2,9.4,11.3c-9.9,47.9-19.8,95.8-29.7,143.6c-1,4.8-3.9,7-8.6,7.2c-1.1,0-2.3,0-3.5,0c-81.9,0-163.7,0-245.6,0
		c-9,0-10.3-1-12.5-9.8C85,150.3,67.9,84.6,50.7,18.9C50.6,18.6,50.4,18.3,50,17.5z"/>
	<path d="M194.2,264c-0.2,16.7-13.6,29.8-30.3,29.7c-16.4-0.1-29.7-13.5-29.7-29.9c0-17.2,13.5-30.4,30.9-30.1
		C181.3,233.9,194.4,247.4,194.2,264z"/>
	<path d="M343.1,263.5c0.1,16.7-13.2,30.2-29.9,30.1c-16.8,0-30-13.2-30.1-29.9c-0.1-16.7,13.2-30.1,29.9-30.1
		C329.8,233.6,343,246.8,343.1,263.5z"/>
</g>
</svg>
