<?xml version="1.0" encoding="utf-8"?>
<!-- Generator: Adobe Illustrator 24.0.2, SVG Export Plug-In . SVG Version: 6.00 Build 0)  -->
<svg version="1.1" id="Capa_1" xmlns="http://www.w3.org/2000/svg" xmlns:xlink="http://www.w3.org/1999/xlink" x="0px" y="0px"
	 viewBox="0 0 405.2 295.7" style="enable-background:new 0 0 405.2 295.7;" xml:space="preserve">
<g>
	<path d="M367.6,34.85h-330c-3.31,0-6,2.69-6,6v214c0,3.31,2.69,6,6,6h330c3.31,0,6-2.69,6-6v-214
		C373.6,37.54,370.91,34.85,367.6,34.85z M361.6,46.85v77.04h-318v-29H333c3.31,0,6-2.69,6-6s-2.69-6-6-6H43.6V46.85H361.6z
		 M43.6,248.85V135.89h318v112.96H43.6z"/>
	<path d="M99.9,168.34c-16.7,0-30,13.4-29.9,30.1c0.1,16.7,13.3,29.9,30.1,29.9c16.7,0.1,30-13.4,29.9-30.1
		C129.9,181.54,116.7,168.34,99.9,168.34z"/>
	<path d="M226,190.89h-47c-3.31,0-6,2.69-6,6s2.69,6,6,6h47c3.31,0,6-2.69,6-6S229.31,190.89,226,190.89z"/>
	<path d="M345,190.89h-47c-2.46,0-4.58,1.48-5.5,3.61c-0.92-2.12-3.04-3.61-5.5-3.61h-47c-3.31,0-6,2.69-6,6s2.69,6,6,6h47
		c2.46,0,4.58-1.48,5.5-3.61c0.92,2.12,3.04,3.61,5.5,3.61h47c3.31,0,6-2.69,6-6S348.31,190.89,345,190.89z"/>
</g>
</svg>
