<?xml version="1.0" encoding="utf-8"?>
<!-- Generator: Adobe Illustrator 24.0.2, SVG Export Plug-In . SVG Version: 6.00 Build 0)  -->
<svg version="1.1" id="Capa_1" xmlns="http://www.w3.org/2000/svg" xmlns:xlink="http://www.w3.org/1999/xlink" x="0px" y="0px"
	 viewBox="0 0 273.2 295.7" style="enable-background:new 0 0 273.2 295.7;" xml:space="preserve">
<g id="_x38_" style="display:none;">
	<path style="display:inline;" d="M226.06,97.94c-0.02,0-0.03,0-0.04,0c-2.61,0-4.74,2.1-4.76,4.72v0.02l-72.39,25.27l28.81-37.15
		c0.03-0.04,0.04-0.09,0.07-0.13c0.16-0.21,0.26-0.46,0.38-0.7c0.12-0.25,0.26-0.48,0.33-0.74c0.02-0.05,0.05-0.09,0.06-0.14
		c0.11-0.4,0.15-0.8,0.16-1.19c0-0.01,0-0.02,0-0.02c0,0,0,0,0,0v0c0-0.01,0-0.01,0-0.01c0-0.46-0.09-0.91-0.22-1.35
		c-0.04-0.12-0.08-0.23-0.12-0.34c-0.14-0.37-0.33-0.72-0.56-1.05c-0.04-0.05-0.07-0.11-0.1-0.16c-0.24-0.31-0.52-0.6-0.84-0.85
		c-0.05-0.04-0.11-0.07-0.17-0.11c-0.08-0.06-0.16-0.1-0.24-0.15c-0.41-0.26-0.85-0.47-1.3-0.59c0,0,0,0,0,0L80.9,58.45
		c-0.12-0.03-0.25-0.04-0.37-0.06c-0.16-0.03-0.31-0.06-0.47-0.07c-0.18-0.02-0.35-0.01-0.53,0c-0.13,0.01-0.25,0-0.38,0.02
		c-0.18,0.02-0.35,0.06-0.52,0.1c-0.13,0.03-0.26,0.06-0.38,0.09c-0.16,0.05-0.31,0.12-0.46,0.19c-0.13,0.06-0.26,0.11-0.39,0.18
		c-0.14,0.08-0.28,0.18-0.41,0.27c-0.12,0.08-0.24,0.15-0.35,0.25c-0.14,0.12-0.27,0.26-0.4,0.4c-0.07,0.07-0.15,0.14-0.22,0.22
		L43.33,99.82c-0.73,0.88-1.08,1.95-1.08,3.01c0,0.35,0.04,0.69,0.11,1.03l0.31,114.44c0,0.46,0.09,0.89,0.21,1.31
		c0.03,0.09,0.05,0.18,0.08,0.27c0.14,0.41,0.33,0.8,0.58,1.15c0.03,0.05,0.08,0.09,0.12,0.14c0.24,0.32,0.53,0.6,0.84,0.85
		c0.06,0.05,0.11,0.1,0.18,0.15c0.36,0.26,0.76,0.45,1.19,0.6c0.04,0.02,0.07,0.04,0.11,0.06l93.46,29.76
		c0.48,0.16,0.97,0.23,1.45,0.23c0.6,0,1.18-0.15,1.73-0.36c0.17-0.04,0.35-0.03,0.53-0.09l83.54-30.21
		c0.02-0.01,0.04-0.03,0.07-0.04c0.41-0.16,0.79-0.37,1.14-0.62c0.08-0.06,0.15-0.12,0.22-0.18c0.32-0.27,0.6-0.56,0.84-0.9
		c0.01-0.01,0.02-0.03,0.04-0.04c0.24-0.35,0.42-0.73,0.56-1.14c0.03-0.09,0.06-0.18,0.09-0.27c0.11-0.4,0.19-0.81,0.19-1.24
		l0.95-114.99c0-0.01,0-0.02,0-0.04C230.78,100.09,228.67,97.96,226.06,97.94z M220.34,214.33l-77.21,27.91l0.36-108.68
		c0.59-0.2,1.15-0.51,1.63-0.95l76.11-26.56L220.34,214.33z M81.44,68.43l84.31,22.22l-27.55,35.53c-0.61,0.78-0.89,1.7-0.95,2.62
		l-85.36-23.6l0-0.8L81.44,68.43z M51.9,108.49l86.77,23.99c0.12,0.12,0.23,0.26,0.37,0.37c0.2,0.15,0.43,0.23,0.64,0.35
		l-0.36,109.37l-87.14-27.75L51.9,108.49z"/>
	<path style="display:inline;" d="M229.48,99.39l-32.96-31.48c-0.07-0.07-0.16-0.09-0.24-0.15c-0.3-0.26-0.64-0.46-1.01-0.64
		c-0.17-0.09-0.33-0.19-0.51-0.25c-0.06-0.02-0.11-0.06-0.17-0.08l-79.93-23.73c-0.35-0.1-0.7-0.16-1.04-0.18
		c-0.04-0.01-0.08,0-0.12,0c-0.58-0.02-1.15,0.05-1.68,0.23c-0.04,0.01-0.07,0.03-0.11,0.04c-0.56,0.2-1.07,0.49-1.51,0.88
		c-0.02,0.01-0.04,0.01-0.05,0.03c-0.03,0.02-0.04,0.06-0.06,0.09c-0.41,0.38-0.76,0.83-1.02,1.35c-0.03,0.07-0.05,0.13-0.08,0.2
		c-0.08,0.18-0.18,0.36-0.23,0.56c-0.07,0.25-0.08,0.5-0.11,0.75c-0.02,0.15-0.06,0.28-0.07,0.43c0,0.06-0.02,0.12-0.02,0.18
		c0,0.51,0.08,1.02,0.24,1.49c0.01,0.03,0.03,0.05,0.04,0.08c0.18,0.52,0.46,0.99,0.81,1.41c0.04,0.05,0.05,0.11,0.09,0.15
		l24.21,27.61c0.12,0.13,0.24,0.26,0.37,0.37l3.4,3.11c0.91,0.84,2.06,1.25,3.21,1.25c1.21,0,2.43-0.46,3.35-1.38
		c0.19-0.19,0.28-0.43,0.44-0.64l74.11,21.29l4.1,3.91c0.92,0.88,2.11,1.32,3.29,1.32c1.25,0,2.51-0.49,3.44-1.47
		c0.88-0.92,1.32-2.11,1.32-3.29C230.95,101.58,230.46,100.33,229.48,99.39z M145.59,78.03c-0.07-1.03-0.41-2.05-1.15-2.88
		l-16.33-18.17l62.66,18.61l23.09,22.05L145.59,78.03z"/>
</g>
<path d="M229.64,104.03c-0.01-0.07-0.02-0.13-0.03-0.2c-0.04-0.21-0.08-0.41-0.14-0.62c-0.02-0.08-0.04-0.15-0.07-0.23
	c-0.07-0.22-0.16-0.44-0.26-0.65c-0.02-0.04-0.03-0.08-0.05-0.11c-0.12-0.24-0.27-0.48-0.43-0.7c-0.04-0.06-0.09-0.12-0.13-0.18
	c-0.13-0.17-0.28-0.34-0.43-0.5c-0.03-0.03-0.06-0.07-0.09-0.11l-33.8-33.27c-0.68-0.67-1.51-1.15-2.43-1.41l-77.13-21.82
	c-2.38-0.67-4.92,0.28-6.27,2.35c-1.35,2.07-1.21,4.78,0.36,6.69l11.84,14.4l-35.42-9.43c-2.15-0.57-4.44,0.17-5.84,1.89
	l-34.54,42.39c-0.82,1.01-1.27,2.27-1.27,3.57V214c0,2.42,1.54,4.57,3.83,5.35l93.65,32c0.61,0.21,1.22,0.31,1.83,0.31
	c0.01,0,0.02,0,0.03,0c0.11,0.01,0.21,0.02,0.32,0.02c0.65,0,1.3-0.11,1.93-0.34l79.93-29.03c2.22-0.81,3.71-2.91,3.73-5.27
	l0.94-112.23C229.7,104.55,229.68,104.29,229.64,104.03z M176.09,98.69l28.45,7.06l-46.75,16.78L176.09,98.69z M128.95,60.04
	l58.36,16.51l18.03,17.75l-22.9-5.68c0.01-0.65-0.08-1.31-0.29-1.95c-0.61-1.79-2.07-3.16-3.9-3.65l-38.92-10.36L128.95,60.04z
	 M54.82,113.01l62.98,17.77c0.51,0.15,1.03,0.21,1.54,0.21c2.47,0,4.74-1.63,5.44-4.12c0.85-3.01-0.9-6.13-3.91-6.98l-61.51-17.35
	l26.42-32.42l47.89,12.75c0.72,0.37,1.5,0.57,2.3,0.61l31.17,8.3l-28.81,37.53c-1.23,1.6-1.46,3.64-0.82,5.4v103.51l-82.69-28.25
	V113.01z M217.47,213.02l-68.65,24.93V137.77l69.49-24.94L217.47,213.02z"/>
</svg>
