<svg width="305" height="40" viewBox="0 0 305 40" fill="none" xmlns="http://www.w3.org/2000/svg">
<path d="M75.0284 25.6466C75.0284 29.6723 73.6325 33.0609 70.8458 35.8122C68.0591 38.5685 64.5543 39.9442 60.3414 39.9442C56.1284 39.9442 52.6236 38.5685 49.8369 35.8122C47.0502 33.0609 45.6543 29.6723 45.6543 25.6466C45.6543 21.6208 47.0502 18.2221 49.8369 15.4506C52.6236 12.6841 56.1234 11.2983 60.3414 11.2983C64.5543 11.2983 68.0591 12.6841 70.8458 15.4506C73.6376 18.2221 75.0284 21.6208 75.0284 25.6466ZM53.453 25.6466C53.453 27.9174 54.1004 29.7634 55.39 31.1947C56.6797 32.6209 58.3335 33.334 60.3464 33.334C62.3593 33.334 64.0131 32.6209 65.3028 31.1947C66.5925 29.7634 67.2398 27.9174 67.2398 25.6466C67.2398 23.3757 66.5925 21.5145 65.3028 20.0732C64.0131 18.6267 62.3593 17.9035 60.3464 17.9035C58.3335 17.9035 56.6797 18.6267 55.39 20.0732C54.1004 21.5145 53.453 23.3757 53.453 25.6466Z" fill="#FB088C"/>
<path d="M94.2528 18.571C91.9466 18.571 90.227 19.3903 89.0891 21.0239C87.9562 22.6575 87.3847 24.8171 87.3847 27.5026V39.5294H79.6416V11.7636H87.3847V15.4252C88.381 14.2873 89.6302 13.3264 91.1273 12.5323C92.6243 11.7434 94.1466 11.3286 95.6942 11.2932L95.7448 18.571H94.2528Z" fill="#FB088C"/>
<path d="M108.296 39.5297H100.553V1.22906H108.296V20.8927L116.914 11.7032H126.67L116.089 22.9613L127.085 39.5297H117.895L110.825 28.8988L108.296 31.5338V39.5297Z" fill="#FB088C"/>
<path d="M169.139 24.5594V39.5247H161.396V1.22906H169.139V14.854C171.48 12.4821 174.1 11.2935 177.008 11.2935C179.916 11.2935 182.369 12.3253 184.362 14.3888C186.354 16.4522 187.356 19.2086 187.356 22.6477V39.5247H179.613V24.3521C179.613 20.0835 178.045 17.9493 174.914 17.9493C173.367 17.9493 172.016 18.5106 170.863 19.6284C169.715 20.7511 169.139 22.3948 169.139 24.5594Z" fill="#FB088C"/>
<path d="M221.044 25.6466C221.044 29.6723 219.648 33.0609 216.866 35.8122C214.079 38.5685 210.575 39.9442 206.362 39.9442C202.144 39.9442 198.644 38.5685 195.857 35.8122C193.071 33.0609 191.68 29.6723 191.68 25.6466C191.68 21.6208 193.071 18.2221 195.857 15.4506C198.644 12.6841 202.144 11.2983 206.362 11.2983C210.575 11.2983 214.079 12.6841 216.866 15.4506C219.648 18.2221 221.044 21.6208 221.044 25.6466ZM199.468 25.6466C199.468 27.9174 200.116 29.7634 201.405 31.1947C202.69 32.6209 204.349 33.334 206.357 33.334C208.364 33.334 210.018 32.6209 211.313 31.1947C212.603 29.7634 213.245 27.9174 213.245 25.6466C213.245 23.3757 212.603 21.5145 211.313 20.0732C210.023 18.6267 208.37 17.9035 206.357 17.9035C204.344 17.9035 202.69 18.6267 201.405 20.0732C200.111 21.5145 199.468 23.3757 199.468 25.6466Z" fill="#FB088C"/>
<path d="M233.323 39.5297H225.58V1.22906H233.323V39.5297Z" fill="#FB088C"/>
<path d="M267.006 33.076C269.586 33.076 271.912 31.7864 273.976 29.207L278.568 34.3657C274.987 38.083 271.118 39.9391 266.956 39.9391C262.794 39.9391 259.273 38.6241 256.401 35.9892C253.528 33.3542 252.092 29.9151 252.092 25.6667C252.092 21.4184 253.548 17.9591 256.451 15.2938C259.359 12.6284 262.809 11.2932 266.799 11.2932C268.792 11.2932 270.815 11.7029 272.863 12.5323C274.911 13.3567 276.707 14.5806 278.254 16.199L274.229 21.4639C273.333 20.3968 272.241 19.5724 270.951 18.9857C269.662 18.4041 268.377 18.1057 267.108 18.1057C265.074 18.1057 263.33 18.7683 261.868 20.0933C260.401 21.4184 259.673 23.2594 259.673 25.6162C259.673 27.973 260.401 29.8038 261.868 31.1137C263.33 32.4236 265.044 33.076 267.006 33.076Z" fill="#FB088C"/>
<path d="M17.4485 39.5043H9.44746L0 11.7283H8.00101L13.4227 28.5041L18.8444 11.7283H26.3295L31.7512 28.5041L37.1728 11.7283H45.2295L35.782 39.4992H27.7304L22.6122 24.3772L17.4485 39.5043Z" fill="#FB088C"/>
<path d="M304.432 30.942C304.432 33.6781 303.426 35.868 301.413 37.5218C299.4 39.1756 296.846 40 293.751 40C291.687 40 289.533 39.6308 287.297 38.8873C285.062 38.1489 283.049 37.0565 281.259 35.6101L284.668 30.7599C289.852 34.902 297.16 35.2662 297.16 31.9434C297.16 27.4219 283.019 28.9645 283.019 20.0481C283.019 15.3496 286.979 11.3542 294.115 11.3542C297.382 11.3542 300.654 12.4567 303.922 14.6567L301.034 19.8205C296.573 16.4471 290.246 16.4167 290.246 19.3046C290.241 23.4872 304.432 21.3883 304.432 30.942Z" fill="#FB088C"/>
<path d="M247.819 4.24327C247.819 6.5849 245.917 8.48653 243.575 8.48653C241.234 8.48653 239.332 6.58996 239.332 4.24327C239.332 1.90163 241.234 0 243.575 0C245.922 0.00505753 247.819 1.90163 247.819 4.24327Z" fill="#FB088C"/>
<path d="M247.45 39.5299H239.707V11.7641H247.45V39.5299Z" fill="#FB088C"/>
<path d="M151.772 4.24327C151.772 6.5849 149.87 8.48653 147.528 8.48653C145.187 8.48653 143.285 6.58996 143.285 4.24327C143.285 1.90163 145.182 0 147.528 0C149.87 0.00505753 151.772 1.90163 151.772 4.24327Z" fill="#FB088C"/>
<path d="M140.953 4.24327C140.953 6.5849 139.052 8.48653 136.71 8.48653C134.368 8.48653 132.467 6.58996 132.467 4.24327C132.467 1.90163 134.368 0 136.71 0C139.057 0.00505753 140.953 1.90163 140.953 4.24327Z" fill="#FB088C"/>
<path d="M156.793 25.6466C156.793 29.6723 155.397 33.0609 152.61 35.8122C149.824 38.5685 146.324 39.9442 142.106 39.9442C137.893 39.9442 134.388 38.5685 131.601 35.8122C128.815 33.0609 127.424 29.6723 127.424 25.6466C127.424 21.6208 128.815 18.2221 131.601 15.4506C134.388 12.6841 137.888 11.2983 142.106 11.2983C146.319 11.2983 149.824 12.6841 152.61 15.4506C155.397 18.2221 156.793 21.6208 156.793 25.6466ZM135.223 25.6466C135.223 27.9174 135.87 29.7634 137.16 31.1947C138.449 32.6209 140.103 33.334 142.116 33.334C144.129 33.334 145.783 32.6209 147.072 31.1947C148.362 29.7634 149.009 27.9174 149.009 25.6466C149.009 23.3757 148.367 21.5145 147.072 20.0732C145.783 18.6267 144.129 17.9035 142.116 17.9035C140.103 17.9035 138.454 18.6267 137.16 20.0732C135.865 21.5145 135.223 23.3757 135.223 25.6466Z" fill="#FB088C"/>
</svg>
