<svg width="305" height="40" viewBox="0 0 305 40" fill="none" xmlns="http://www.w3.org/2000/svg">
<path d="M75.4601 25.6466C75.4601 29.6723 74.0642 33.0609 71.2775 35.8122C68.4908 38.5685 64.9859 39.9442 60.773 39.9442C56.5601 39.9442 53.0552 38.5685 50.2685 35.8122C47.4818 33.0609 46.0859 29.6723 46.0859 25.6466C46.0859 21.6208 47.4818 18.2221 50.2685 15.4506C53.0552 12.6841 56.555 11.2983 60.773 11.2983C64.9859 11.2983 68.4908 12.6841 71.2775 15.4506C74.0692 18.2221 75.4601 21.6208 75.4601 25.6466ZM53.8846 25.6466C53.8846 27.9174 54.532 29.7634 55.8217 31.1947C57.1114 32.6209 58.7652 33.334 60.7781 33.334C62.791 33.334 64.4448 32.6209 65.7344 31.1947C67.0241 29.7634 67.6715 27.9174 67.6715 25.6466C67.6715 23.3757 67.0241 21.5145 65.7344 20.0732C64.4448 18.6267 62.791 17.9035 60.7781 17.9035C58.7652 17.9035 57.1114 18.6267 55.8217 20.0732C54.532 21.5145 53.8846 23.3757 53.8846 25.6466Z" fill="#212222"/>
<path d="M94.6845 18.571C92.3782 18.571 90.6587 19.3903 89.5207 21.0239C88.3878 22.6575 87.8163 24.8171 87.8163 27.5026V39.5294H80.0732V11.7636H87.8163V15.4252C88.8127 14.2873 90.0619 13.3264 91.5589 12.5323C93.0559 11.7434 94.5782 11.3286 96.1258 11.2932L96.1764 18.571H94.6845Z" fill="#212222"/>
<path d="M108.727 39.5297H100.984V1.22906H108.727V20.8927L117.345 11.7032H127.101L116.521 22.9613L127.516 39.5297H118.327L111.256 28.8988L108.727 31.5338V39.5297Z" fill="#212222"/>
<path d="M169.57 24.5594V39.5247H161.827V1.22906H169.57V14.854C171.912 12.4821 174.532 11.2935 177.44 11.2935C180.348 11.2935 182.801 12.3253 184.793 14.3888C186.786 16.4522 187.787 19.2086 187.787 22.6477V39.5247H180.044V24.3521C180.044 20.0835 178.477 17.9493 175.346 17.9493C173.798 17.9493 172.448 18.5106 171.295 19.6284C170.147 20.7511 169.57 22.3948 169.57 24.5594Z" fill="#212222"/>
<path d="M221.475 25.6466C221.475 29.6723 220.079 33.0609 217.298 35.8122C214.511 38.5685 211.006 39.9442 206.793 39.9442C202.575 39.9442 199.076 38.5685 196.289 35.8122C193.502 33.0609 192.111 29.6723 192.111 25.6466C192.111 21.6208 193.502 18.2221 196.289 15.4506C199.076 12.6841 202.575 11.2983 206.793 11.2983C211.006 11.2983 214.511 12.6841 217.298 15.4506C220.079 18.2221 221.475 21.6208 221.475 25.6466ZM199.9 25.6466C199.9 27.9174 200.547 29.7634 201.837 31.1947C203.122 32.6209 204.78 33.334 206.788 33.334C208.796 33.334 210.45 32.6209 211.745 31.1947C213.034 29.7634 213.677 27.9174 213.677 25.6466C213.677 23.3757 213.034 21.5145 211.745 20.0732C210.455 18.6267 208.801 17.9035 206.788 17.9035C204.775 17.9035 203.122 18.6267 201.837 20.0732C200.542 21.5145 199.9 23.3757 199.9 25.6466Z" fill="#212222"/>
<path d="M233.755 39.5297H226.012V1.22906H233.755V39.5297Z" fill="#212222"/>
<path d="M267.438 33.076C270.017 33.076 272.344 31.7864 274.407 29.207L279 34.3657C275.419 38.083 271.55 39.9391 267.388 39.9391C263.225 39.9391 259.705 38.6241 256.832 35.9892C253.96 33.3542 252.523 29.9151 252.523 25.6667C252.523 21.4184 253.98 17.9591 256.883 15.2938C259.791 12.6284 263.24 11.2932 267.231 11.2932C269.223 11.2932 271.246 11.7029 273.295 12.5323C275.343 13.3567 277.138 14.5806 278.686 16.199L274.66 21.4639C273.765 20.3968 272.673 19.5724 271.383 18.9857C270.093 18.4041 268.809 18.1057 267.539 18.1057C265.506 18.1057 263.761 18.7683 262.3 20.0933C260.833 21.4184 260.105 23.2594 260.105 25.6162C260.105 27.973 260.833 29.8038 262.3 31.1137C263.761 32.4236 265.476 33.076 267.438 33.076Z" fill="#212222"/>
<path d="M17.8801 39.5043H9.8791L0.431641 11.7283H8.43265L13.8543 28.5041L19.276 11.7283H26.7611L32.1828 28.5041L37.6045 11.7283H45.6611L36.2137 39.4992H28.1621L23.0438 24.3772L17.8801 39.5043Z" fill="#212222"/>
<path d="M304.863 30.942C304.863 33.6781 303.857 35.868 301.844 37.5218C299.831 39.1756 297.277 40 294.182 40C292.118 40 289.964 39.6308 287.728 38.8873C285.493 38.1489 283.48 37.0565 281.689 35.6101L285.098 30.7599C290.282 34.902 297.59 35.2662 297.59 31.9434C297.59 27.4219 283.449 28.9645 283.449 20.0481C283.449 15.3496 287.41 11.3542 294.546 11.3542C297.813 11.3542 301.085 12.4567 304.352 14.6567L301.464 19.8205C297.004 16.4471 290.677 16.4167 290.677 19.3046C290.672 23.4872 304.863 21.3883 304.863 30.942Z" fill="#212222"/>
<path d="M248.25 4.24327C248.25 6.5849 246.349 8.48653 244.007 8.48653C241.665 8.48653 239.764 6.58996 239.764 4.24327C239.764 1.90163 241.665 0 244.007 0C246.354 0.00505753 248.25 1.90163 248.25 4.24327Z" fill="#212222"/>
<path d="M247.882 39.5299H240.139V11.7641H247.882V39.5299Z" fill="#212222"/>
<path d="M152.203 4.24327C152.203 6.5849 150.302 8.48653 147.96 8.48653C145.618 8.48653 143.717 6.58996 143.717 4.24327C143.717 1.90163 145.613 0 147.96 0C150.302 0.00505753 152.203 1.90163 152.203 4.24327Z" fill="#212222"/>
<path d="M141.385 4.24327C141.385 6.5849 139.483 8.48653 137.142 8.48653C134.8 8.48653 132.898 6.58996 132.898 4.24327C132.898 1.90163 134.8 0 137.142 0C139.488 0.00505753 141.385 1.90163 141.385 4.24327Z" fill="#212222"/>
<path d="M157.225 25.6466C157.225 29.6723 155.829 33.0609 153.042 35.8122C150.255 38.5685 146.755 39.9442 142.537 39.9442C138.325 39.9442 134.82 38.5685 132.033 35.8122C129.246 33.0609 127.855 29.6723 127.855 25.6466C127.855 21.6208 129.246 18.2221 132.033 15.4506C134.82 12.6841 138.319 11.2983 142.537 11.2983C146.75 11.2983 150.255 12.6841 153.042 15.4506C155.829 18.2221 157.225 21.6208 157.225 25.6466ZM135.654 25.6466C135.654 27.9174 136.302 29.7634 137.591 31.1947C138.881 32.6209 140.535 33.334 142.548 33.334C144.56 33.334 146.214 32.6209 147.504 31.1947C148.794 29.7634 149.441 27.9174 149.441 25.6466C149.441 23.3757 148.799 21.5145 147.504 20.0732C146.214 18.6267 144.56 17.9035 142.548 17.9035C140.535 17.9035 138.886 18.6267 137.591 20.0732C136.296 21.5145 135.654 23.3757 135.654 25.6466Z" fill="#212222"/>
</svg>
