<?xml version="1.0" encoding="utf-8"?>
<!-- Generator: Adobe Illustrator 24.0.2, SVG Export Plug-In . SVG Version: 6.00 Build 0)  -->
<svg version="1.1" id="Capa_1" xmlns="http://www.w3.org/2000/svg" xmlns:xlink="http://www.w3.org/1999/xlink" x="0px" y="0px"
	 viewBox="0 0 289.1 52.8" style="enable-background:new 0 0 289.1 52.8;" xml:space="preserve">
<style type="text/css">
	.st0{fill:#FB088C;}
</style>
<g id="Capa_1_1_">
</g>
<g>
	<path class="st0" d="M79.8,26.9c0,4-1.4,7.4-4.2,10.2c-2.8,2.8-6.3,4.1-10.5,4.1s-7.7-1.4-10.5-4.1c-2.8-2.8-4.2-6.1-4.2-10.2
		c0-4,1.4-7.4,4.2-10.2s6.3-4.2,10.5-4.2s7.7,1.4,10.5,4.2C78.4,19.5,79.8,22.9,79.8,26.9z M58.3,26.9c0,2.3,0.6,4.1,1.9,5.5
		c1.3,1.4,2.9,2.1,5,2.1c2,0,3.7-0.7,5-2.1c1.3-1.4,1.9-3.3,1.9-5.5c0-2.3-0.6-4.1-1.9-5.6c-1.3-1.4-2.9-2.2-5-2.2
		c-2,0-3.7,0.7-5,2.2C58.9,22.8,58.3,24.7,58.3,26.9z"/>
	<path class="st0" d="M99.1,19.9c-2.3,0-4,0.8-5.2,2.5c-1.1,1.6-1.7,3.8-1.7,6.5v12h-7.7V13.1h7.7v3.7c1-1.1,2.2-2.1,3.7-2.9
		c1.5-0.8,3-1.2,4.6-1.2l0.1,7.3h-1.5V19.9z"/>
	<path class="st0" d="M113.1,40.8h-7.7V2.5h7.7v19.7l8.6-9.2h9.8l-10.6,11.3l11,16.6h-9.2l-7.1-10.6l-2.5,2.6V40.8z"/>
	<path class="st0" d="M22.2,40.8h-8L4.8,13h8l5.4,16.8L23.6,13h7.5l5.4,16.8L41.9,13H50l-9.4,27.8h-8.1l-5.1-15.1L22.2,40.8z"/>
	<path class="st0" d="M156.6,5.5c0,2.3-1.9,4.2-4.2,4.2s-4.2-1.9-4.2-4.2s1.9-4.2,4.2-4.2C154.7,1.3,156.6,3.2,156.6,5.5z"/>
	<path class="st0" d="M145.8,5.5c0,2.3-1.9,4.2-4.2,4.2s-4.2-1.9-4.2-4.2s1.9-4.2,4.2-4.2S145.8,3.2,145.8,5.5z"/>
	<path class="st0" d="M161.6,26.9c0,4-1.4,7.4-4.2,10.2s-6.3,4.1-10.5,4.1s-7.7-1.4-10.5-4.1c-2.8-2.8-4.2-6.1-4.2-10.2
		c0-4,1.4-7.4,4.2-10.2s6.3-4.2,10.5-4.2s7.7,1.4,10.5,4.2C160.2,19.5,161.6,22.9,161.6,26.9z M140,26.9c0,2.3,0.6,4.1,1.9,5.5
		c1.3,1.4,2.9,2.1,5,2.1s3.7-0.7,5-2.1c1.3-1.4,1.9-3.3,1.9-5.5c0-2.3-0.6-4.1-1.9-5.6c-1.3-1.4-2.9-2.2-5-2.2s-3.7,0.7-5,2.2
		C140.7,22.8,140,24.7,140,26.9z"/>
	<path class="st0" d="M187.1,32.2c0,2.7-1,4.9-3,6.6s-4.6,2.5-7.7,2.5c-2.1,0-4.2-0.4-6.5-1.1c-2.2-0.7-4.2-1.8-6-3.3l3.4-4.9
		c5.2,4.1,12.5,4.5,12.5,1.2c0-4.5-14.1-3-14.1-11.9c0-4.7,4-8.7,11.1-8.7c3.3,0,6.5,1.1,9.8,3.3l-2.9,5.2
		c-4.5-3.4-10.8-3.4-10.8-0.5C172.9,24.8,187.1,22.7,187.1,32.2z"/>
	<path class="st0" d="M199.6,26.5v15h-7.7V3.1h7.7v13.6c2.3-2.4,5-3.6,7.9-3.6s5.4,1,7.4,3.1s3,4.8,3,8.3v16.9h-7.7V26.3
		c0-4.3-1.6-6.4-4.7-6.4c-1.5,0-2.9,0.6-4.1,1.7C200.2,22.7,199.6,24.3,199.6,26.5z"/>
	<path class="st0" d="M251.5,27c0,4-1.4,7.4-4.2,10.2s-6.3,4.1-10.5,4.1s-7.7-1.4-10.5-4.1c-2.8-2.8-4.2-6.1-4.2-10.2
		c0-4,1.4-7.4,4.2-10.2s6.3-4.2,10.5-4.2s7.7,1.4,10.5,4.2S251.5,23,251.5,27z M230,27c0,2.3,0.6,4.1,1.9,5.5c1.3,1.4,2.9,2.1,5,2.1
		c2,0,3.7-0.7,5-2.1c1.3-1.4,1.9-3.3,1.9-5.5c0-2.3-0.6-4.1-1.9-5.6c-1.3-1.4-2.9-2.2-5-2.2s-3.7,0.7-5,2.2
		C230.6,22.9,230,24.8,230,27z"/>
	<path class="st0" d="M280.1,17.2c-2.8-2.8-6.3-4.2-10.5-4.2c-2.5,0-4.8,0.5-6.8,1.5v-1.1h-7.7V52h7.7V40.2c2,1,4.3,1.5,6.8,1.5
		c4.2,0,7.7-1.3,10.5-4.1s4.2-6.2,4.2-10.2S282.9,20,280.1,17.2z M274.7,32.9c-1.3,1.4-3,2.1-5,2.1c-2.1,0-3.7-0.7-5-2.1
		s-1.9-3.2-1.9-5.5c0-2.2,0.6-4.1,1.9-5.6s2.9-2.2,5-2.2s3.7,0.8,5,2.2c1.3,1.5,1.9,3.3,1.9,5.6C276.6,29.6,276,31.5,274.7,32.9z"/>
</g>
</svg>
