<?xml version="1.0" encoding="utf-8"?>
<!-- Generator: Adobe Illustrator 24.0.2, SVG Export Plug-In . SVG Version: 6.00 Build 0)  -->
<svg version="1.1" id="Capa_1" xmlns="http://www.w3.org/2000/svg" xmlns:xlink="http://www.w3.org/1999/xlink" x="0px" y="0px"
	 viewBox="0 0 279.6 51.2" style="enable-background:new 0 0 279.6 51.2;" xml:space="preserve">
<style type="text/css">
	.st0{fill:#FB088C;}
</style>
<g id="Capa_1_1_">
</g>
<path class="st0" d="M75,26.1c0,4-1.4,7.4-4.2,10.2c-2.8,2.8-6.3,4.1-10.5,4.1s-7.7-1.4-10.5-4.1c-2.8-2.8-4.2-6.1-4.2-10.2
	c0-4,1.4-7.4,4.2-10.2s6.3-4.2,10.5-4.2s7.7,1.4,10.5,4.2C73.6,18.7,75,22.1,75,26.1z M53.5,26.1c0,2.3,0.6,4.1,1.9,5.5
	c1.3,1.4,2.9,2.1,5,2.1c2,0,3.7-0.7,5-2.1s1.9-3.3,1.9-5.5c0-2.3-0.6-4.1-1.9-5.6c-1.3-1.4-2.9-2.2-5-2.2c-2,0-3.7,0.7-5,2.2
	C54.1,22,53.5,23.9,53.5,26.1z"/>
<path class="st0" d="M94.3,19.1c-2.3,0-4,0.8-5.2,2.5c-1.1,1.6-1.7,3.8-1.7,6.5v12h-7.7V12.3h7.7V16c1-1.1,2.2-2.1,3.7-2.9
	c1.5-0.8,3-1.2,4.6-1.2l0.1,7.3h-1.5V19.1z"/>
<path class="st0" d="M108.3,40h-7.7V1.7h7.7v19.7l8.6-9.2h9.8l-10.6,11.3l11,16.6h-9.2l-7.1-10.6l-2.5,2.6
	C108.3,32.1,108.3,40,108.3,40z"/>
<path class="st0" d="M17.4,40h-8L0,12.2h8L13.4,29l5.4-16.8h7.5L31.7,29l5.4-16.8h8.1L35.8,40h-8.1l-5.1-15.1L17.4,40z"/>
<path class="st0" d="M151.8,4.7c0,2.3-1.9,4.2-4.2,4.2s-4.2-1.9-4.2-4.2s1.9-4.2,4.2-4.2C149.9,0.5,151.8,2.4,151.8,4.7z"/>
<path class="st0" d="M141,4.7c0,2.3-1.9,4.2-4.2,4.2s-4.2-1.9-4.2-4.2s1.9-4.2,4.2-4.2S141,2.4,141,4.7z"/>
<path class="st0" d="M156.8,26.1c0,4-1.4,7.4-4.2,10.2s-6.3,4.1-10.5,4.1s-7.7-1.4-10.5-4.1c-2.8-2.8-4.2-6.1-4.2-10.2
	c0-4,1.4-7.4,4.2-10.2s6.3-4.2,10.5-4.2s7.7,1.4,10.5,4.2C155.4,18.7,156.8,22.1,156.8,26.1z M135.2,26.1c0,2.3,0.6,4.1,1.9,5.5
	c1.3,1.4,2.9,2.1,5,2.1s3.7-0.7,5-2.1s1.9-3.3,1.9-5.5c0-2.3-0.6-4.1-1.9-5.6c-1.3-1.4-2.9-2.2-5-2.2s-3.7,0.7-5,2.2
	C135.9,22,135.2,23.9,135.2,26.1z"/>
<path class="st0" d="M182.3,31.4c0,2.7-1,4.9-3,6.6s-4.6,2.5-7.7,2.5c-2.1,0-4.2-0.4-6.5-1.1c-2.2-0.7-4.2-1.8-6-3.3l3.4-4.9
	c5.2,4.1,12.5,4.5,12.5,1.2c0-4.5-14.1-3-14.1-11.9c0-4.7,4-8.7,11.1-8.7c3.3,0,6.5,1.1,9.8,3.3l-2.9,5.2
	c-4.5-3.4-10.8-3.4-10.8-0.5C168.1,24,182.3,21.9,182.3,31.4z"/>
<path class="st0" d="M194.8,25.7v15h-7.7V2.3h7.7v13.6c2.3-2.4,5-3.6,7.9-3.6s5.4,1,7.4,3.1s3,4.8,3,8.3v16.9h-7.7V25.5
	c0-4.3-1.6-6.4-4.7-6.4c-1.5,0-2.9,0.6-4.1,1.7C195.4,21.9,194.8,23.5,194.8,25.7z"/>
<path class="st0" d="M246.7,26.2c0,4-1.4,7.4-4.2,10.2s-6.3,4.1-10.5,4.1s-7.7-1.4-10.5-4.1c-2.8-2.8-4.2-6.1-4.2-10.2
	c0-4,1.4-7.4,4.2-10.2s6.3-4.2,10.5-4.2s7.7,1.4,10.5,4.2S246.7,22.2,246.7,26.2z M225.2,26.2c0,2.3,0.6,4.1,1.9,5.5
	c1.3,1.4,2.9,2.1,5,2.1c2,0,3.7-0.7,5-2.1s1.9-3.3,1.9-5.5c0-2.3-0.6-4.1-1.9-5.6c-1.3-1.4-2.9-2.2-5-2.2s-3.7,0.7-5,2.2
	C225.8,22.1,225.2,24,225.2,26.2z"/>
<path class="st0" d="M275.3,16.4c-2.8-2.8-6.3-4.2-10.5-4.2c-2.5,0-4.8,0.5-6.8,1.5v-1.1h-7.7v38.6h7.7V39.4c2,1,4.3,1.5,6.8,1.5
	c4.2,0,7.7-1.3,10.5-4.1s4.2-6.2,4.2-10.2S278.1,19.2,275.3,16.4z M269.9,32.1c-1.3,1.4-3,2.1-5,2.1c-2.1,0-3.7-0.7-5-2.1
	c-1.3-1.4-1.9-3.2-1.9-5.5c0-2.2,0.6-4.1,1.9-5.6s2.9-2.2,5-2.2s3.7,0.8,5,2.2c1.3,1.5,1.9,3.3,1.9,5.6
	C271.8,28.8,271.2,30.7,269.9,32.1z"/>
</svg>
