<svg xmlns="http://www.w3.org/2000/svg" viewBox="0 0 445.16 385.99"><defs><style>.cls-1{fill:#f5f5f5;}.cls-2{fill:#fb088c;}.cls-14,.cls-3,.cls-7{fill:#fff;}.cls-11,.cls-3{opacity:0.6;}.cls-4{opacity:0.2;}.cls-14,.cls-5{opacity:0.4;}.cls-6{opacity:0.3;}.cls-7{opacity:0.5;}.cls-8{fill:#e4897b;}.cls-9{fill:#263238;}.cls-10{fill:#de5753;}.cls-12{fill:#ce6f64;}.cls-13{opacity:0.1;}</style></defs><title>mail-contacto</title><g id="Character"><ellipse class="cls-1" cx="226.21" cy="348.48" rx="193.89" ry="11.32"/><polygon class="cls-2" points="25.06 82.81 253.03 115.62 283.63 146.5 25.06 82.81"/><polygon class="cls-3" points="25.06 82.81 253.03 115.62 283.63 146.5 25.06 82.81"/><polygon class="cls-2" points="25.06 82.81 253.03 115.62 242.46 160.27 25.06 82.81"/><polygon class="cls-4" points="25.06 82.81 253.03 115.62 242.46 160.27 25.06 82.81"/><path class="cls-2" d="M237.77,31.12l13.24,62a6.26,6.26,0,0,1-4.8,7.41l-118.08,25.2a6.26,6.26,0,0,1-7.41-4.8l-13.24-62a6.23,6.23,0,0,1,4.8-7.41l118.08-25.2a6.25,6.25,0,0,1,7.41,4.8Z"/><path class="cls-5" d="M237.77,31.12l13.24,62a6.26,6.26,0,0,1-4.8,7.41l-118.08,25.2a6.26,6.26,0,0,1-7.41-4.8l-13.24-62a6.23,6.23,0,0,1,4.8-7.41l118.08-25.2a6.25,6.25,0,0,1,7.41,4.8Z"/><path class="cls-2" d="M234.87,27.07,195.41,75.5a25.42,25.42,0,0,1-31.15,6.65L108.47,54a6.27,6.27,0,0,1,3.81-2.52l118.08-25.2A6.25,6.25,0,0,1,234.87,27.07Z"/><polygon class="cls-2" points="25.06 82.81 213.1 127.49 242.46 160.27 25.06 82.81"/><polygon class="cls-3" points="25.06 82.81 213.1 127.49 242.46 160.27 25.06 82.81"/><rect class="cls-2" x="103.36" y="120.32" width="1" height="24.25" transform="translate(-62.92 155.12) rotate(-59.64)"/><rect class="cls-2" x="126.83" y="141.83" width="1" height="8.72" transform="translate(-63.18 182.16) rotate(-59.64)"/><polygon class="cls-2" points="25.06 82.81 213.1 127.49 176.55 171.55 25.06 82.81"/><path class="cls-2" d="M276.57,187.51a2.11,2.11,0,0,1-.74-.14L245.2,175.24a2,2,0,1,1,1.47-3.72l30.63,12.13a2,2,0,0,1-.73,3.86Z"/><path class="cls-6" d="M276.57,187.51a2.11,2.11,0,0,1-.74-.14L245.2,175.24a2,2,0,1,1,1.47-3.72l30.63,12.13a2,2,0,0,1-.73,3.86Z"/><path class="cls-2" d="M274.76,169.94a1.89,1.89,0,0,1-.73-.14l-16.46-6.51a2,2,0,0,1,1.48-3.72l16.45,6.51a2,2,0,0,1-.74,3.86Z"/><path class="cls-7" d="M274.76,169.94a1.89,1.89,0,0,1-.73-.14l-16.46-6.51a2,2,0,0,1,1.48-3.72l16.45,6.51a2,2,0,0,1-.74,3.86Z"/><path class="cls-2" d="M240.37,187.21a2,2,0,0,1-.74-.15l-29.87-11.82a2,2,0,0,1,1.48-3.72l29.87,11.83a2,2,0,0,1-.74,3.86Z"/><path class="cls-6" d="M240.37,187.21a2,2,0,0,1-.74-.15l-29.87-11.82a2,2,0,0,1,1.48-3.72l29.87,11.83a2,2,0,0,1-.74,3.86Z"/><path class="cls-8" d="M348.51,97.07c2.65,5.17,5.08,10.35,7.39,15.65s4.46,10.67,6.33,16.29l.69,2.14c.11.37.29,1,.38,1.44s.2.94.25,1.36a35.13,35.13,0,0,1,.34,4.87,87.33,87.33,0,0,1-.41,9A142.19,142.19,0,0,1,360.75,165l-5.48-.61c-.07-5.63-.12-11.32-.32-16.87-.1-2.77-.26-5.53-.54-8.14a33,33,0,0,0-.59-3.62c-.06-.28-.13-.5-.2-.73s-.11-.3-.22-.6l-.75-1.89c-2.09-5.06-4.44-10.17-6.84-15.25l-7.26-15.23Z"/><path class="cls-8" d="M355.35,162.67l-2.56,4.79,8.18,2.28s1.55-3.86-.3-6.89Z"/><polygon class="cls-8" points="349.65 174.36 357.17 174.95 360.97 169.74 352.79 167.46 349.65 174.36"/><path class="cls-9" d="M314.08,62.51c-.12.58-.52,1-.9.91s-.59-.61-.47-1.19.52-1,.9-.91S314.2,61.93,314.08,62.51Z"/><path class="cls-10" d="M313.61,63.51a21.21,21.21,0,0,1-3.78,4.4A3.42,3.42,0,0,0,312.5,69Z"/><path class="cls-9" d="M316.86,59.72a.34.34,0,0,1-.25-.11,2.76,2.76,0,0,0-2.34-.94.35.35,0,1,1-.11-.69,3.47,3.47,0,0,1,3,1.15.35.35,0,0,1-.26.59Z"/><path class="cls-8" d="M330.62,70.68c-1.05,5.37-2.1,15.22,1.66,18.81,0,0-1.47,5.45-11.46,5.45-11,0-5.25-5.45-5.25-5.45,6-1.43,5.84-5.88,4.8-10.06Z"/><path class="cls-9" d="M333.78,92.88c.8-2.63,1.67-5.65-.14-6.59-2-1-12.86-2.1-16.61-.15s-2.68,7.29-2.68,7.29Z"/><path class="cls-2" d="M356.85,342.27a2.35,2.35,0,0,1-1.76-.49.69.69,0,0,1,0-.82.83.83,0,0,1,.55-.41c1.08-.25,3.1,1.14,3.19,1.2a.18.18,0,0,1,.07.17.2.2,0,0,1-.13.14A9.34,9.34,0,0,1,356.85,342.27Zm-.92-1.4a.71.71,0,0,0-.21,0,.44.44,0,0,0-.32.23c-.16.29-.07.41,0,.45.32.41,1.82.42,2.91.23A5.67,5.67,0,0,0,355.93,340.87Z"/><path class="cls-2" d="M358.73,342.06a.15.15,0,0,1-.09,0c-.76-.41-2.23-2-2.07-2.84a.56.56,0,0,1,.55-.45,1,1,0,0,1,.74.22c.86.7,1,2.82,1,2.91a.16.16,0,0,1-.08.16A.15.15,0,0,1,358.73,342.06Zm-1.49-3h-.07c-.23,0-.25.13-.26.18-.09.48.84,1.7,1.6,2.27a4.2,4.2,0,0,0-.87-2.3A.6.6,0,0,0,357.24,339.09Z"/><path class="cls-2" d="M312.74,342.27c-.95,0-1.86-.13-2.16-.56a.66.66,0,0,1,0-.76.88.88,0,0,1,.55-.4c1.22-.33,3.79,1.13,3.9,1.19a.17.17,0,0,1,.09.18.17.17,0,0,1-.14.14A12.27,12.27,0,0,1,312.74,342.27Zm-1.17-1.43a1.66,1.66,0,0,0-.33,0,.55.55,0,0,0-.35.25c-.12.21-.07.32,0,.38.33.46,2.19.48,3.56.29A7.82,7.82,0,0,0,311.57,340.84Z"/><path class="cls-2" d="M315,342.06h-.08c-.88-.4-2.64-2-2.5-2.82,0-.19.17-.44.64-.48a1.28,1.28,0,0,1,1,.29c.93.77,1.13,2.75,1.14,2.83a.18.18,0,0,1-.07.16A.19.19,0,0,1,315,342.06Zm-1.8-3h-.1c-.31,0-.33.16-.34.2-.08.5,1.11,1.75,2,2.29a4.18,4.18,0,0,0-1-2.27A1,1,0,0,0,313.16,339.09Z"/><polygon class="cls-8" points="323.03 341.89 315.69 341.89 314.96 324.88 322.3 324.88 323.03 341.89"/><polygon class="cls-8" points="367.14 341.89 359.8 341.89 356.1 324.88 363.45 324.88 367.14 341.89"/><path class="cls-9" d="M359.27,341h8.26a.63.63,0,0,1,.62.5l1.45,6.53a1.08,1.08,0,0,1-1.07,1.31c-2.88-.05-4.28-.22-7.91-.22-2.23,0-6.84.23-9.92.23s-3.49-3.05-2.22-3.32c5.66-1.24,7.79-2.95,9.6-4.58A1.8,1.8,0,0,1,359.27,341Z"/><path class="cls-9" d="M315.74,341h8a.63.63,0,0,1,.62.5l1.46,6.53a1.07,1.07,0,0,1-1.06,1.31c-2.9-.05-7.08-.22-10.71-.22-4.26,0-7.93.23-12.92.23-3,0-3.85-3.05-2.59-3.32,5.75-1.26,10.44-1.4,15.41-4.46A3.41,3.41,0,0,1,315.74,341Z"/><path class="cls-8" d="M312.19,102.39A171.71,171.71,0,0,1,293.88,100c-3-.59-6.07-1.24-9.1-2a71.75,71.75,0,0,1-9.17-3c-.76-.31-1.54-.67-2.32-1a22.59,22.59,0,0,1-2.49-1.45c-1.45-1-2.68-1.94-3.91-2.92-2.45-2-4.73-4-7-6-4.47-4.14-8.72-8.42-12.8-12.92l3.68-4.11,14.5,10.42c2.4,1.73,4.82,3.42,7.2,5,1.18.78,2.39,1.53,3.49,2.15a11.66,11.66,0,0,0,1.44.71c.6.23,1.2.46,1.83.67a106.54,106.54,0,0,0,16.53,3.7c5.71.91,11.61,1.65,17.31,2.24Z"/><path class="cls-2" d="M345.43,91.15c6.89,1.58,13.85,21.71,13.85,21.71L345.1,123s-4-9.37-7.85-17.57C333.17,96.86,338.39,89.53,345.43,91.15Z"/><path class="cls-5" d="M345.43,91.15c6.89,1.58,13.85,21.71,13.85,21.71L345.1,123s-4-9.37-7.85-17.57C333.17,96.86,338.39,89.53,345.43,91.15Z"/><path class="cls-2" d="M341.46,102.15l-2.81,6.29c2.91,6.28,5.57,12.5,6.28,14.16C344.83,115.17,343.42,106,341.46,102.15Z"/><path class="cls-11" d="M341.46,102.15l-2.81,6.29c2.91,6.28,5.57,12.5,6.28,14.16C344.83,115.17,343.42,106,341.46,102.15Z"/><path class="cls-2" d="M304.27,91.53s-7.82,8.83-.43,63.49h39.29c.27-6-3.52-35.45,2.3-63.87a102.87,102.87,0,0,0-13.15-1.66,141,141,0,0,0-16.71,0A73.5,73.5,0,0,0,304.27,91.53Z"/><path class="cls-5" d="M304.27,91.53s-7.82,8.83-.43,63.49h39.29c.27-6-3.52-35.45,2.3-63.87a102.87,102.87,0,0,0-13.15-1.66,141,141,0,0,0-16.71,0A73.5,73.5,0,0,0,304.27,91.53Z"/><path class="cls-2" d="M301.37,102.15c-.26,2.07-.46,4.52-.59,7.41a41.08,41.08,0,0,0,10.94-5.14Z"/><path class="cls-11" d="M301.37,102.15c-.26,2.07-.46,4.52-.59,7.41a41.08,41.08,0,0,0,10.94-5.14Z"/><path class="cls-2" d="M318.18,103.22c-5.26,4.66-25.34,4.19-25.34,4.19L292.17,88a148.34,148.34,0,0,0,20.47,1.48C323.87,89.25,323.94,98.11,318.18,103.22Z"/><path class="cls-5" d="M318.18,103.22c-5.26,4.66-25.34,4.19-25.34,4.19L292.17,88a148.34,148.34,0,0,0,20.47,1.48C323.87,89.25,323.94,98.11,318.18,103.22Z"/><path class="cls-8" d="M251,66.49l-5-5.89-5.38,6s3.31,5.58,8.59,4.7Z"/><polygon class="cls-8" points="238.81 53.73 236.87 61.41 240.55 66.56 245.93 60.6 238.81 53.73"/><polygon class="cls-12" points="314.96 324.88 315.33 333.65 322.68 333.65 322.31 324.88 314.96 324.88"/><polygon class="cls-12" points="363.45 324.88 356.1 324.88 358.01 333.65 365.36 333.65 363.45 324.88"/><path class="cls-9" d="M319.38,55.21c-6.59-3.05-8.67-16.34,10.29-13.05,0,0-2.86,3.17,2.94,5.17S333.56,61.76,319.38,55.21Z"/><path class="cls-8" d="M333.7,65.22c-1.89,7-2.64,11.26-7,14.19-6.54,4.4-14.68-.65-14.93-8.12-.23-6.72,2.89-17.11,10.45-18.53A10,10,0,0,1,333.7,65.22Z"/><path class="cls-9" d="M329.41,45.74c4.48,2.51,10.57,4,9.95,7.56-.74,4.35,3.68,1.63,2.65,8.11-.67,4.23-8.47,17-14,16.42-8.25-.94-7.21-13.55-7.23-20.18C320.79,53.75,320.61,40.82,329.41,45.74Z"/><path class="cls-9" d="M319.82,51.36c-2,.47-4.65,12,3.09,13C331.83,65.63,319.82,51.36,319.82,51.36Z"/><path class="cls-9" d="M320,55.45c-2.45.22-8-2.73-7.32-7.17C312.7,48.28,316.22,53.47,320,55.45Z"/><path class="cls-8" d="M323.65,65.33A8.22,8.22,0,0,1,320,69.19c-2.11,1.1-3.3-.51-2.82-2.62.43-1.91,2.05-4.77,4.22-5S324.53,63.33,323.65,65.33Z"/><path class="cls-9" d="M334.65,57.2a9.84,9.84,0,0,0,5.79-7.33S343.74,59.09,334.65,57.2Z"/><path class="cls-9" d="M343,57.1a5.06,5.06,0,0,0-4.79-.47S341.29,52.63,343,57.1Z"/><path class="cls-2" d="M317.78,155s8.33,56.15,12.91,77.18c5,23,23.9,99.75,23.9,99.75H368s-12.45-74.86-15.31-97.66c-3.1-24.75-9.6-79.27-9.6-79.27Z"/><path class="cls-7" d="M317.78,155s8.33,56.15,12.91,77.18c5,23,23.9,99.75,23.9,99.75H368s-12.45-74.86-15.31-97.66c-3.1-24.75-9.6-79.27-9.6-79.27Z"/><path class="cls-2" d="M352.44,327c-.06,0,1.39,5.16,1.39,5.16H369l-.28-4.61Z"/><path class="cls-13" d="M352.44,327c-.06,0,1.39,5.16,1.39,5.16H369l-.28-4.61Z"/><path class="cls-2" d="M323.05,175c9.64,1.89,8.62,37.84,7.46,56.33-2.78-13.07-6.85-38.22-9.63-56.07A3.29,3.29,0,0,1,323.05,175Z"/><path class="cls-14" d="M323.05,175c9.64,1.89,8.62,37.84,7.46,56.33-2.78-13.07-6.85-38.22-9.63-56.07A3.29,3.29,0,0,1,323.05,175Z"/><path class="cls-2" d="M303.84,155s-1,54.93-.21,77.33c.83,23.31,9,99.6,9,99.6H325s.46-74.93,1-97.82c.61-24.95,3.62-79.11,3.62-79.11Z"/><path class="cls-7" d="M303.84,155s-1,54.93-.21,77.33c.83,23.31,9,99.6,9,99.6H325s.46-74.93,1-97.82c.61-24.95,3.62-79.11,3.62-79.11Z"/><path class="cls-2" d="M315.19,323a.13.13,0,0,1-.13-.11c-2.19-21.11-7.36-72.21-8-90.54-.66-18.71-.06-60.69.14-73.11a.14.14,0,0,1,.13-.13h0a.12.12,0,0,1,.12.13c-.2,12.42-.8,54.39-.14,73.1.66,18.32,5.83,69.41,8,90.53a.11.11,0,0,1-.11.13Z"/><path class="cls-14" d="M315.19,323a.13.13,0,0,1-.13-.11c-2.19-21.11-7.36-72.21-8-90.54-.66-18.71-.06-60.69.14-73.11a.14.14,0,0,1,.13-.13h0a.12.12,0,0,1,.12.13c-.2,12.42-.8,54.39-.14,73.1.66,18.32,5.83,69.41,8,90.53a.11.11,0,0,1-.11.13Z"/><path class="cls-2" d="M310.2,327c-.06,0,.7,5.16.7,5.16H326l.41-4.61Z"/><path class="cls-13" d="M310.2,327c-.06,0,.7,5.16.7,5.16H326l.41-4.61Z"/></g></svg>