<?xml version="1.0" encoding="utf-8"?>
<!-- Generator: Adobe Illustrator 24.0.2, SVG Export Plug-In . SVG Version: 6.00 Build 0)  -->
<svg version="1.1" id="Capa_1" xmlns="http://www.w3.org/2000/svg" xmlns:xlink="http://www.w3.org/1999/xlink" x="0px" y="0px"
	 viewBox="0 0 405.2 295.7" style="enable-background:new 0 0 405.2 295.7;" xml:space="preserve">
<style type="text/css">
	.st0{fill:#FB088C;}
	.st1{fill:none;stroke:#000000;stroke-width:15;stroke-linecap:round;stroke-miterlimit:10;}
</style>
<path class="st0" d="M382.4,61.2H25.8c-4.6,0-8.4-3.4-8.4-7.5s3.7-7.5,8.4-7.5h356.6c4.6,0,8.4,3.4,8.4,7.5S387,61.2,382.4,61.2z"/>
<path class="st0" d="M382.4,156.6H25.8c-4.6,0-8.4-3.4-8.4-7.5c0-4.1,3.7-7.5,8.4-7.5h356.6c4.6,0,8.4,3.4,8.4,7.5
	C390.8,153.3,387,156.6,382.4,156.6z"/>
<path class="st0" d="M382.4,252H25.8c-4.6,0-8.4-3.4-8.4-7.5s3.7-7.5,8.4-7.5h356.6c4.6,0,8.4,3.4,8.4,7.5S387,252,382.4,252z"/>
<g>
	<circle class="st0" cx="397.3" cy="676.1" r="69.1"/>
	<path class="st0" d="M551.1,892.1H246.8c-2.1,0-4-0.9-5.4-2.4c-1.4-1.5-2.1-3.6-1.9-5.6c4.1-47,37.8-109.6,92-133.4
		c3.7-1.6,8.1,0.1,9.7,3.8c1.6,3.7-0.1,8.1-3.8,9.7c-29.5,12.9-48.7,36.8-59.6,54.6c-11.3,18.4-19.4,39.6-22.5,58.5h287.5
		c-3.1-18.8-11.2-40.1-22.5-58.5c-10.9-17.8-30.1-41.7-59.6-54.6c-3.7-1.6-5.4-6-3.8-9.7c1.6-3.7,6-5.4,9.7-3.8
		c54.2,23.7,87.8,86.4,92,133.4c0.2,2.1-0.5,4.1-1.9,5.6C555.2,891.2,553.2,892.1,551.1,892.1z"/>
</g>
<line class="st1" x1="534" y1="73" x2="853.6" y2="73"/>
<line class="st1" x1="534" y1="145.6" x2="853.6" y2="145.6"/>
<line class="st1" x1="534" y1="218.2" x2="853.6" y2="218.2"/>
</svg>
