<?xml version="1.0" encoding="utf-8"?>
<!-- Generator: Adobe Illustrator 24.0.2, SVG Export Plug-In . SVG Version: 6.00 Build 0)  -->
<svg version="1.1" id="Capa_1" xmlns="http://www.w3.org/2000/svg" xmlns:xlink="http://www.w3.org/1999/xlink" x="0px" y="0px"
	 viewBox="0 0 358.3 358.4" style="enable-background:new 0 0 358.3 358.4;" xml:space="preserve">
<style type="text/css">
	.st0{fill:#FFFFFF;}
</style>
<g>
	<path class="st0" d="M2,179C2.1,80.2,82.2,0.1,181,0c99-0.1,179.4,80.3,179.3,179.3c-0.1,99-80.6,179.4-179.5,179.1
		C81.8,358,1.9,277.9,2,179z M181.4,25.5c-83.9-0.8-153.2,68-153.9,152.8C26.8,263,94.8,331.7,180.6,332.9
		c83.8,1.2,153.2-67.7,154.2-153C335.8,95.5,266.9,26.3,181.4,25.5z"/>
	<path class="st0" d="M176.5,291.1c-44.1-1.9-82.5-22.6-108.8-64.6c-4.7-7.5-3.1-15.2,3.6-19.1c6.4-3.8,13.6-1.4,18.2,5.8
		c22.9,35.9,55.7,54,98.2,51.7c35.1-1.8,62.6-18.7,82.5-47.7c1.1-1.6,2.1-3.4,3.2-5.1c4.2-6.4,11.7-8.3,17.8-4.6
		c6.1,3.7,7.9,11.2,4,17.9c-11.3,19.4-26.6,34.9-45.8,46.4C228.5,284.5,205.8,290.7,176.5,291.1z"/>
	<path class="st0" d="M120.4,122.9c14.3,0.3,25.2,11.9,24.8,26.4c-0.3,13.8-12.3,25.1-26.2,24.7c-14.2-0.4-25.2-12.2-24.9-26.6
		C94.5,133.5,106.1,122.7,120.4,122.9z"/>
	<path class="st0" d="M217.1,148.2c0.1-14.4,11.5-25.4,26-25.2c14,0.1,25.2,11.6,25.1,25.8c-0.1,14-11.6,25.4-25.6,25.4
		C228.4,174.1,216.9,162.5,217.1,148.2z"/>
</g>
</svg>
