<?xml version="1.0" encoding="utf-8"?>
<!-- Generator: Adobe Illustrator 24.0.2, SVG Export Plug-In . SVG Version: 6.00 Build 0)  -->
<svg version="1.1" xmlns="http://www.w3.org/2000/svg" xmlns:xlink="http://www.w3.org/1999/xlink" x="0px" y="0px"
	 viewBox="0 0 405.2 295.7" style="enable-background:new 0 0 405.2 295.7;" xml:space="preserve">
<style type="text/css">
	.st0{display:none;}
	.st1{display:inline;fill:#FFFFFF;}
	.st2{display:inline;}
	.st3{fill:#FB088C;}
	.st4{display:inline;fill:#FB088C;}
	.st5{fill:none;stroke:#FB088C;stroke-width:17;stroke-linecap:round;stroke-linejoin:round;stroke-miterlimit:10;}
	
		.st6{display:none;fill:none;stroke:#FB088C;stroke-width:15.9934;stroke-linecap:round;stroke-linejoin:round;stroke-miterlimit:10;}
</style>
<g id="Capa_1">
	<g class="st0">
		<path class="st1" d="M152.1,163.8c-3.7-3-6.7-5.2-9.4-7.8c-3.5-3.5-6.7-3.7-11.1-1.2c-47.5,27.3-74.2,68-79.5,122.5
			c-1.1,11.5-1.1,11.5,10.7,11.5c1.6,0,3.2,0,4.8,0c93.7,0,187.3,0,281,0c7.8,0,8.5-0.5,8-7.3c-4.2-56.8-31.3-99.1-80.9-127.2
			c-1.7-1-4.8-1.9-6.1-1c-4.6,2.9-8.6,6.6-13.5,10.5c4,2.4,7,4.3,10.1,6.1c35.7,21.1,59.9,50.7,68.9,91.7c1.6,7.4,1.2,8.3-5.9,8.3
			c-83.5,0-166.9,0-250.4,0c-6.3,0-7.1-0.9-5.8-6.9c8.5-38.5,29.1-68.4,63.2-88.8C141.2,171.2,146.1,167.8,152.1,163.8z"/>
		<path class="st2" d="M152.1,163.8c-6,3.9-10.8,7.4-16,10.5c-34.1,20.4-54.6,50.3-63.2,88.8c-1.3,6-0.5,6.9,5.8,6.9
			c83.5,0,166.9,0,250.4,0c7.1,0,7.5-0.9,5.9-8.3c-9-41-33.2-70.7-68.9-91.7c-3.1-1.8-6.1-3.7-10.1-6.1c4.9-3.9,9-7.6,13.5-10.5
			c1.3-0.8,4.3,0,6.1,1c49.5,28.1,76.7,70.4,80.9,127.2c0.5,6.8-0.2,7.3-8,7.3c-93.7,0-187.3,0-281,0c-1.6,0-3.2,0-4.8,0
			c-11.8,0-11.8,0-10.7-11.5c5.4-54.5,32-95.2,79.5-122.5c4.4-2.5,7.6-2.4,11.1,1.2C145.3,158.7,148.4,160.8,152.1,163.8z"/>
		<path class="st2" d="M204.4,7.9c-41.4-0.1-75,33.3-75,74.8c-0.1,41.2,33.2,74.9,74.1,75c41.7,0.1,75.2-33.1,75.3-74.4
			C278.9,41.7,245.6,7.9,204.4,7.9z M205.3,138.7c-31,0.5-56.5-24-57-54.7c-0.5-31,24.1-56.7,54.7-57.1c31.2-0.4,56.5,24.1,57,55.4
			C260.5,112.7,235.8,138.2,205.3,138.7z"/>
	</g>
</g>
<g id="Capa_2">
	<g>
		<circle class="st3" cx="-442.4" cy="72.8" r="69.1"/>
		<path class="st3" d="M-425.8,280.8c0.2,2.1-0.5,4.1-1.9,5.6c-1.5,1.5-3.5,2.4-5.6,2.4h-159.5c-2.1,0-4-0.9-5.4-2.4
			s-2.1-3.6-1.9-5.6c4.1-47,37.8-109.6,92-133.4c3.7-1.6,8.1,0.1,9.7,3.8c1.6,3.7-0.1,8.1-3.8,9.7c-29.5,12.9-48.7,36.8-59.6,54.6
			c-11.3,18.4-19.4,39.6-22.5,58.5h142.7c0,0,10.8-0.4,13.5,1.6C-426.9,276.4-425.8,280.8-425.8,280.8z"/>
	</g>
	<g class="st0">
		<circle class="st4" cx="166.8" cy="147.9" r="115.6"/>
	</g>
	<g class="st0">
		<circle class="st4" cx="172.7" cy="147.9" r="47"/>
	</g>
	<g>
		<line class="st5" x1="-462.1" y1="215" x2="-289.7" y2="215"/>
		<polyline class="st5" points="-357.7,284.4 -288.3,215 -357.7,145.6 		"/>
	</g>
	<g>
		<line class="st5" x1="193" y1="146" x2="375.8" y2="146"/>
		<polyline class="st5" points="307.8,215.4 377.2,146 307.8,76.5 		"/>
	</g>
	<path class="st5" d="M243,275.4c-15.9,6.4-33.3,10-51.5,10C115.6,285.3,54,223.8,54,147.9S115.6,10.4,191.5,10.4
		c18.9,0,36.8,3.8,53.2,10.7"/>
	<polyline class="st6" points="252.7,247.2 252.7,267.4 66.6,267.4 66.6,20.8 252.7,20.8 252.7,46.5 	"/>
</g>
</svg>
