<?xml version="1.0" encoding="utf-8"?>
<!-- Generator: Adobe Illustrator 24.0.2, SVG Export Plug-In . SVG Version: 6.00 Build 0)  -->
<svg version="1.1" id="Capa_1" xmlns="http://www.w3.org/2000/svg" xmlns:xlink="http://www.w3.org/1999/xlink" x="0px" y="0px"
	 viewBox="0 0 405.2 295.7" style="enable-background:new 0 0 405.2 295.7;" xml:space="preserve">
<style type="text/css">
	.st0{display:none;}
	.st1{display:inline;fill:#FFFFFF;}
	.st2{display:inline;}
	.st3{fill:#FB088C;}
</style>
<g class="st0">
	<path class="st1" d="M152.1,163.8c-3.7-3-6.7-5.2-9.4-7.8c-3.5-3.5-6.7-3.7-11.1-1.2c-47.5,27.3-74.2,68-79.5,122.5
		c-1.1,11.5-1.1,11.5,10.7,11.5c1.6,0,3.2,0,4.8,0c93.7,0,187.3,0,281,0c7.8,0,8.5-0.5,8-7.3c-4.2-56.8-31.3-99.1-80.9-127.2
		c-1.7-1-4.8-1.9-6.1-1c-4.6,2.9-8.6,6.6-13.5,10.5c4,2.4,7,4.3,10.1,6.1c35.7,21.1,59.9,50.7,68.9,91.7c1.6,7.4,1.2,8.3-5.9,8.3
		c-83.5,0-166.9,0-250.4,0c-6.3,0-7.1-0.9-5.8-6.9c8.5-38.5,29.1-68.4,63.2-88.8C141.2,171.2,146.1,167.8,152.1,163.8z"/>
	<path class="st2" d="M152.1,163.8c-6,3.9-10.8,7.4-16,10.5c-34.1,20.4-54.6,50.3-63.2,88.8c-1.3,6-0.5,6.9,5.8,6.9
		c83.5,0,166.9,0,250.4,0c7.1,0,7.5-0.9,5.9-8.3c-9-41-33.2-70.7-68.9-91.7c-3.1-1.8-6.1-3.7-10.1-6.1c4.9-3.9,9-7.6,13.5-10.5
		c1.3-0.8,4.3,0,6.1,1c49.5,28.1,76.7,70.4,80.9,127.2c0.5,6.8-0.2,7.3-8,7.3c-93.7,0-187.3,0-281,0c-1.6,0-3.2,0-4.8,0
		c-11.8,0-11.8,0-10.7-11.5c5.4-54.5,32-95.2,79.5-122.5c4.4-2.5,7.6-2.4,11.1,1.2C145.3,158.7,148.4,160.8,152.1,163.8z"/>
	<path class="st2" d="M204.4,7.9c-41.4-0.1-75,33.3-75,74.8c-0.1,41.2,33.2,74.9,74.1,75c41.7,0.1,75.2-33.1,75.3-74.4
		C278.9,41.7,245.6,7.9,204.4,7.9z M205.3,138.7c-31,0.5-56.5-24-57-54.7c-0.5-31,24.1-56.7,54.7-57.1c31.2-0.4,56.5,24.1,57,55.4
		C260.5,112.7,235.8,138.2,205.3,138.7z"/>
</g>
<g>
	<circle class="st3" cx="202.5" cy="72.8" r="69.1"/>
	<path class="st3" d="M356.3,288.8H52c-2.1,0-4-0.9-5.4-2.4c-1.4-1.5-2.1-3.6-1.9-5.6c4.1-47,37.8-109.6,92-133.4
		c3.7-1.6,8.1,0.1,9.7,3.8c1.6,3.7-0.1,8.1-3.8,9.7c-29.5,12.9-48.7,36.8-59.6,54.6c-11.3,18.4-19.4,39.6-22.5,58.5H348
		c-3.1-18.8-11.2-40.1-22.5-58.5c-10.9-17.8-30.1-41.7-59.6-54.6c-3.7-1.6-5.4-6-3.8-9.7c1.6-3.7,6-5.4,9.7-3.8
		c54.2,23.7,87.8,86.4,92,133.4c0.2,2.1-0.5,4.1-1.9,5.6C360.4,287.9,358.4,288.8,356.3,288.8z"/>
</g>
</svg>
